<svg width="90" height="55" viewBox="0 0 90 55" fill="none" xmlns="http://www.w3.org/2000/svg">
<path fill-rule="evenodd" clip-rule="evenodd" d="M34.2214 47.176L28.1638 54.4542L6.6004 37.2081L12.7711 29.636L34.2214 47.176Z" fill="#F89D21"/>
<path fill-rule="evenodd" clip-rule="evenodd" d="M37.8604 31.5346L43.3303 35.8292L35.6001 45.2999L14.5114 28.1667L42.0645 18.2892C42.4714 18.1309 42.8557 17.9275 43.2399 17.6337C43.6242 17.3398 43.9858 17.0234 44.2796 16.6617C44.9803 15.8028 45.2968 14.9665 45.1612 14.1302C45.0482 13.2939 44.5057 12.5028 43.579 11.7795C42.72 11.1014 41.8159 10.8301 40.844 10.9205C39.872 11.011 39.0583 11.463 38.4028 12.2541C38.0186 12.7288 37.7926 13.1808 37.6795 13.6555C37.5891 14.1302 37.6343 14.6501 37.8152 15.2151L27.9828 18.8316C26.8753 16.4131 26.4684 14.085 26.7622 11.8473C27.0787 9.60956 28.0732 7.48486 29.7911 5.42798C32.4582 2.21834 35.8261 0.432695 39.8946 0.0710456C43.9632 -0.313207 47.7153 0.862154 51.1736 3.57453C54.4737 6.17389 56.3497 9.36092 56.847 13.1582C57.3442 16.9556 56.3497 20.346 53.8634 23.3296C53.0044 24.3468 51.9873 25.2509 50.8119 26.0194C49.6366 26.7879 47.8283 27.6242 45.4098 28.5736L37.8604 31.5346Z" fill="#020202"/>
<path d="M59.559 54.4541H31.1469L45.5903 36.8463L59.559 54.4541Z" fill="#971F21"/>
<path fill-rule="evenodd" clip-rule="evenodd" d="M76.1267 35.7839C76.3527 37.999 75.1096 40.1689 72.9397 41.0052C70.3629 41.9998 67.4697 40.6888 66.4752 38.112C65.4806 35.5353 66.7916 32.6421 69.3684 31.6475C71.5383 30.8112 73.9342 31.6023 75.2226 33.4106L87.5865 28.6865C83.6083 20.1426 73.6404 15.9836 64.6895 19.3967C55.3318 22.9679 50.653 33.4332 54.2243 42.7909C57.7956 52.1486 68.2608 56.8274 77.6185 53.2561C86.5693 49.843 91.2482 40.1011 88.4906 31.0825L76.1267 35.7839Z" fill="#00BCF1"/>
<path d="M4.88227 34.4504C7.57868 34.4504 9.76455 32.2645 9.76455 29.5681C9.76455 26.8717 7.57868 24.6858 4.88227 24.6858C2.18587 24.6858 0 26.8717 0 29.5681C0 32.2645 2.18587 34.4504 4.88227 34.4504Z" fill="#F89D21"/>
</svg>
