<?xml version="1.0" encoding="UTF-8"?>
<svg version="1.1" viewBox="0 0 1600 376" xmlns="http://www.w3.org/2000/svg">
<path transform="translate(29.6 -.313)" d="m0 0c7.64 0 12.8 0.731 18.4 6.22 2.4 2.62 4.57 5 5.99 8.28 0.88 1.97 0.88 1.97 2.81 2.42 2.45 0.432 4.74 0.524 7.23 0.528 1.01 0.00424 2.02 0.00848 3.06 0.0129 1.11-3.86e-4 2.22-7.72e-4 3.36-0.00117 1.18 0.00353 2.36 0.00705 3.57 0.0107 3.27 0.00884 6.54 0.0132 9.81 0.0158 3.53 0.0039 7.05 0.0135 10.6 0.0226 6.11 0.0149 12.2 0.0265 18.3 0.0359 8.84 0.0139 17.7 0.0351 26.5 0.0584 14.3 0.0379 28.7 0.0729 43 0.105 1.29 0.00285 1.29 0.00285 2.6 0.00576 12.2 0.0269 24.4 0.0507 36.6 0.0734 0.859 0.0016 1.72 0.00319 2.6 0.00484 0.858 0.00159 1.72 0.00319 2.6 0.00483 14.3 0.0267 28.6 0.0611 42.9 0.102 8.82 0.0248 17.6 0.0431 26.5 0.0532 6.04 0.00737 12.1 0.0219 18.1 0.0421 3.49 0.0114 6.98 0.0195 10.5 0.019 3.77 0.00107 7.55 0.0142 11.3 0.0306 1.11-0.00262 2.22-0.00523 3.37-0.00793 1 0.00685 2.01 0.0137 3.04 0.0208 1.31 0.0026 1.31 0.0026 2.64 0.00526 2.09 0.254 2.09 0.254 4.09 2.25 0.278 2.78 0.278 2.78 0.319 6.38 0.01 0.654 0.0201 1.31 0.0304 1.98 0.0309 2.16 0.0479 4.33 0.0648 6.49 0.0187 1.5 0.0383 3 0.0587 4.5 0.0514 3.95 0.091 7.9 0.128 11.8 0.04 4.03 0.0911 8.06 0.141 12.1 0.0969 7.91 0.181 15.8 0.258 23.7 0.829-0.00333 0.829-0.00333 1.67-0.00673 5.76-0.0221 11.5-0.0372 17.3-0.0482 2.15-0.00502 4.3-0.0118 6.45-0.0205 3.09-0.0121 6.18-0.0178 9.27-0.0222 0.959-0.00516 1.92-0.0103 2.9-0.0156 0.901-7.55e-5 1.8-1.51e-4 2.73-2.29e-4 0.788-0.00222 1.58-0.00444 2.39-0.00673 2.55 0.133 4.85 0.444 7.31 1.12 1.03 1.65 2.03 3.32 3 5 1.12 1.01 2.26 1.99 3.44 2.94 3.26 2.66 5.33 5.48 7.56 9.06 0.979 1.02 1.98 2.02 3 3 1.67 2 3.34 4 5 6 1.32 1.32 2.66 2.64 4 3.94 2 2.06 2 2.06 4 5.06 1.65 1.73 3.38 3.36 5.12 5 1.88 2 1.88 2 2.88 5h2c0.248 0.784 0.495 1.57 0.75 2.38 1.46 3.06 2.3 3.24 5.25 4.62 0.684 1.32 1.35 2.66 2 4l2.06 1.5c2.25 1.75 2.56 2.73 2.94 5.5 2.25 0.928 2.25 0.928 5 1 2.51-1.92 2.51-1.92 4.75-4.75 0.433-0.503 0.865-1.01 1.31-1.52 1.33-1.56 2.64-3.14 3.94-4.73 0.735-0.888 1.47-1.78 2.23-2.69 1.46-1.78 2.91-3.56 4.35-5.34 6.27-7.67 12.6-15.3 19.7-22.2 2.19-2.27 4.15-4.69 6.14-7.14 0.758-0.933 1.52-1.87 2.3-2.83 1.47-1.82 2.94-3.64 4.41-5.47 5-5.99 5-5.99 9.05-7.58 3.32 0.295 5.15 1.29 7.81 3.25-0.387 5.4-2.47 8.32-6 12.2-1.01 1.15-2.02 2.29-3.03 3.44-0.504 0.567-1.01 1.13-1.53 1.72-2.07 2.37-4.04 4.82-6.01 7.28-3.82 4.7-7.86 9.16-12 13.6-3.22 3.58-6.23 7.32-9.25 11.1-2.19 2.65-4.46 5.21-6.78 7.75-1.48 1.64-2.96 3.29-4.44 4.94-1.18 1.31-1.18 1.31-2.38 2.64-0.741 0.862-1.48 1.72-2.25 2.61-0.673 0.768-1.35 1.54-2.04 2.33-1.62 2.43-1.62 2.43-1.16 5.61 0.985 3.34 1.92 4.02 4.83 5.81 2.35 2.09 2.97 2.91 4 6l2 0.938 2 1.06c0.343 1.33 0.676 2.66 1 4 1.79 1.51 1.79 1.51 4 3 3.96 3.78 7.51 7.84 11.1 12 4.3 5.01 8.68 9.93 13.2 14.8 4.31 4.62 8.38 9.37 12.3 14.3 3.44 4.2 7.02 8.28 10.6 12.4 4.16 4.78 8.17 9.64 12.1 14.6 1.56 2.06 1.56 2.06 3.71 2.98 2.21 0.096 4.42 0.124 6.63 0.124 0.694 0.00128 1.39 0.00256 2.1 0.00387 2.35 0.00309 4.71-0.00102 7.06-0.00502 1.7 7.39e-4 3.4 0.00192 5.1 0.0035 4.71 0.00309 9.43-1.21e-4 14.1-0.00428 5.11-0.00342 10.2-0.00107 15.3 5.77e-4 8.97 0.00208 17.9 4.21e-4 26.9-0.00364 13.3-0.00602 26.7-0.00634 40-0.00546 22.4 0.00132 44.9-0.00203 67.3-0.00802 22.2-0.00592 44.5-0.00977 66.7-0.0109 1.03-5.16e-5 1.03-5.16e-5 2.09-1.04e-4 6.3-3.13e-4 12.6-6.01e-4 18.9-8.58e-4 15.7-6.39e-4 31.3-0.0016 47-0.00278 1.07-8e-5 1.07-8e-5 2.16-1.62e-4 34.7-0.00262 69.4-0.00893 104-0.0155 12.1-0.00229 24.1-0.00457 36.2-0.00677 0.747-1.37e-4 1.49-2.74e-4 2.27-4.15e-4 34.7-0.00634 69.5-0.0101 104-0.0131 2.25-1.98e-4 4.51-3.97e-4 6.76-5.97e-4 14.9-0.00132 29.9-0.00259 44.8-0.00384 29.7-0.00248 59.5-0.00522 89.2-0.00814 1.42-1.39e-4 2.83-2.78e-4 4.25-4.17e-4 86.5-0.00848 173-0.0226 283-0.0421 0.46-1.09 0.92-2.18 1.39-3.3 3.03-7.18 6.73-11.2 13.6-14.7 6.24-2.08 11.4-1.58 17.4 1.25 4.32 2.22 6.72 4.49 8.54 9.04 0.352 1.16 0.352 1.16 0.711 2.34 0.692 2.24 1.33 4.28 2.38 6.38 0.831 5.57 0.496 9.97-2.5 14.8-3.96 5.31-8.96 8.88-15.5 10.2-7.44 0.572-13.1-1.18-18.8-5.88-2.13-1.85-3.17-3.09-4.36-5.69-1.64-2.74-1.64-2.74-4.84-3.05-1.25 0.00132-2.5 0.00264-3.79 0.00401-1.05-0.00914-1.05-0.00914-2.12-0.0185-2.37-0.0144-4.73 0.00709-7.1 0.0281-1.71-0.00298-3.43-0.00815-5.14-0.0153-4.74-0.0135-9.48 0.00449-14.2 0.0272-5.15 0.0191-10.3 0.00933-15.4 0.00304-9.03-0.00704-18.1 0.00446-27.1 0.0279-13.4 0.0347-26.9 0.0407-40.3 0.0404-21.9 1.21e-4 -43.8 0.0203-65.7 0.0529-23.1 0.0343-46.1 0.0554-69.2 0.0574-1.04 9.18e-5 -1.04 9.18e-5 -2.11 1.85e-4 -8.47 6.96e-4 -16.9 7.91e-4 -25.4 7.31e-4 -13.6-4.3e-5 -27.3 0.00153-40.9 0.00321-1.08 1.29e-4 -1.08 1.29e-4 -2.18 2.6e-4 -34.2 0.00414-68.4 0.022-103 0.0442-2.27 0.00147-4.54 0.00294-6.81 0.0044-34.2 0.0221-68.4 0.0485-103 0.0813-3.8 0.00364-7.59 0.00726-11.4 0.0109-0.751 7.17e-4 -1.5 0.00143-2.28 0.00217-7.58 0.00723-15.2 0.0144-22.7 0.0216-2.27 0.00216-4.54 0.00432-6.8 0.00648-34.2 0.0325-68.3 0.0587-102 0.0609-0.718 4.79e-5 -1.44 9.59e-5 -2.18 1.45e-4 -15.1 9.56e-4 -30.1 3.71e-4 -45.2-0.00233-7.05-0.00125-14.1-0.00207-21.2-0.00262-0.694-5.93e-5 -1.39-1.19e-4 -2.1-1.8e-4 -22.4-0.00168-44.7 0.0244-67.1 0.0657-23.2 0.0428-46.3 0.0586-69.5 0.0422-13.4-0.0085-26.7 0.00562-40.1 0.0516-8.91 0.0285-17.8 0.0283-26.7 0.00431-5.08-0.0128-10.2-0.0128-15.2 0.0224-4.62 0.0318-9.25 0.0268-13.9-0.00757-1.66-0.0059-3.33 0.00162-4.99 0.0242-9.16 0.117-15.6-0.393-22.6-7.02-0.622-0.66-1.24-1.32-1.89-2-0.529-0.51-1.06-1.02-1.6-1.55-1.33-1.31-2.59-2.69-3.83-4.08-0.45-0.499-0.899-0.997-1.36-1.51-3.94-4.43-7.59-9.09-11.2-13.8-3.41-4.41-7.04-8.55-10.8-12.7-3.9-4.33-7.52-8.89-11.2-13.4-5.51-6.81-11.1-13.5-16.8-20.1-2.19-2.54-4.33-5.07-6.39-7.71-1.59-2.23-1.59-2.23-3.77-3.15-0.464-0.959-0.464-0.959-0.938-1.94-1.02-2.38-1.02-2.38-4.06-4.06v-3c-9.02 4.86-15.2 14.1-21.5 22-3.41 4.14-6.92 8.18-10.4 12.2-2.78 3.19-5.55 6.39-8.28 9.64-0.787 0.933-0.787 0.933-1.59 1.89-0.983 1.17-1.96 2.34-2.93 3.51-3.4 4.02-7.14 7.42-11.2 10.7-6.09-2.14-6.09-2.14-8-5 0.203-5.17 3.21-8.04 6.5-11.7 0.818-0.93 0.818-0.93 1.65-1.88 1.61-1.82 3.22-3.63 4.85-5.43 0.772-0.861 1.54-1.72 2.34-2.61 1.41-1.57 2.83-3.14 4.25-4.7 7.68-8.57 15.2-17.3 22.4-26.3 2.47-2.99 5.1-5.8 7.8-8.58 1.65-2.52 1.7-3.89 1.21-6.85-1.58-2.29-1.58-2.29-3.81-4.44-3.82-4.03-7.31-8.16-10.7-12.6-3.91-5.06-8-9.87-12.3-14.6-3.05-3.39-5.89-6.92-8.76-10.5-3.23-3.95-6.55-7.84-9.87-11.7-3.43-4.02-3.43-4.02-4.54-6.24-5.64-0.995-11.2-1.14-16.9-1.1-1.21 0.00212-1.21 0.00212-2.45 0.00429-2.56 0.00554-5.11 0.0181-7.67 0.0309-1.75 0.00502-3.49 0.00958-5.24 0.0137-4.25 0.011-8.51 0.0282-12.8 0.0488-1.28 2.57-1.14 4.41-1.16 7.29-0.00979 1.12-0.0196 2.24-0.0297 3.4-0.00576 1.24-0.0115 2.47-0.0174 3.75-0.0099 1.3-0.0198 2.6-0.03 3.93-0.0271 3.56-0.0481 7.13-0.068 10.7-0.0218 3.72-0.0492 7.44-0.0761 11.2-0.05 7.05-0.0949 14.1-0.138 21.2-0.0494 8.03-0.104 16.1-0.16 24.1-0.114 16.5-0.221 33-0.323 49.5-23.7 0.0702-47.4 0.123-71.1 0.155-11 0.0154-22 0.0365-33 0.0709-9.6 0.03-19.2 0.0493-28.8 0.0559-5.08 0.00389-10.2 0.013-15.2 0.0349-4.79 0.0205-9.59 0.0266-14.4 0.0221-1.75 8.17e-4 -3.5 0.00667-5.24 0.0183-23.1 0.146-43.7-4.47-61.3-20.5-2.7-2.77-5.02-5.77-7.3-8.88-1.44-1.99-1.44-1.99-3.02-3.38-2.26-2.43-3.6-5.21-5.15-8.14-0.611-1.14-1.22-2.29-1.85-3.47-7.74-15.4-7.19-36.3-2.52-52.5 2.68-7.51 6.42-14 11-20.5 0.51-0.77 1.02-1.54 1.55-2.33 10.7-15.1 28.6-23.7 46.3-27.3 6.6-1.1 13.3-0.937 20-0.914 1.72-0.00876 3.43-0.0193 5.15-0.0313 4.61-0.0276 9.21-0.0313 13.8-0.0303 4.83-0.00315 9.67-0.0288 14.5-0.052 9.13-0.0404 18.3-0.0609 27.4-0.074 10.4-0.0159 20.8-0.0544 31.2-0.0946 21.4-0.0822 42.8-0.136 64.1-0.172 1.14-6.36 1.13-12.6 1.1-19.1-0.00141-1.14-0.00283-2.29-0.00429-3.47-0.00558-3.64-0.0181-7.27-0.0309-10.9-0.00502-2.47-0.00958-4.95-0.0137-7.42-0.011-6.05-0.0277-12.1-0.0488-18.1-34.9 0.105-69.8 0.214-105 0.331-4.11 0.0138-8.23 0.0275-12.3 0.0412-1.23 0.00409-1.23 0.00409-2.48 0.00827-13.3 0.0441-26.6 0.0847-39.8 0.124-13.6 0.0404-27.2 0.0846-40.9 0.132-8.41 0.0293-16.8 0.0557-25.2 0.0783-5.76 0.0158-11.5 0.0352-17.3 0.0575-3.33 0.0128-6.66 0.0234-9.98 0.0308-3.6 0.00822-7.2 0.0225-10.8 0.0384-1.06 9.78e-4 -2.13 0.00196-3.22 0.00296-1.43 0.00821-1.43 0.00821-2.9 0.0166-0.832 0.00266-1.66 0.00532-2.52 0.00805-1.89-0.0753-1.89-0.0753-2.88 1.13-0.273 1.66-0.518 3.33-0.75 5-0.972 5.6-2.71 10.5-6.25 15-0.99 0.33-1.98 0.66-3 1-0.268 0.598-0.536 1.2-0.812 1.81-1.9 3.5-5.17 5.5-8.91 6.77-9.56 1.74-18.6 1.52-26.9-3.82-7.25-5.49-13.4-11.8-14.8-21.1-0.42-8.73 1.5-14.6 6.52-21.7 0.468-0.679 0.936-1.36 1.42-2.06 3.26-4.24 6.98-6.6 11.7-9 3.66-1.86 6.15-2.22 10.4-2.26zm192 99.3c-1.75 0.108-3.5 0.146-5.25 0.158-1.12 0.0103-2.24 0.0205-3.4 0.0311-1.23 0.0073-2.45 0.0146-3.71 0.0221-2.59 0.0281-5.17 0.0568-7.76 0.0859-4.08 0.0422-8.17 0.079-12.3 0.104-3.94 0.0253-7.87 0.0737-11.8 0.122-1.81 0.00488-1.81 0.00488-3.65 0.00986-18.8 0.269-33.8 7.29-47.2 20.5-6.11 6.36-6.11 6.36-9 14h-2c-1.16 2.52-2.3 5.04-3.44 7.56-0.325 0.704-0.651 1.41-0.986 2.13-5.36 12-4.55 25-0.576 37.3 1.37 2.54 2.58 4.58 4.62 6.62 1.38 1.38 1.38 1.38 2.38 4.38l2 1c0.142 0.616 0.284 1.23 0.43 1.87 2.16 8.09 16.7 15 23.6 19.1 13.4 7.15 27.9 7.3 42.7 7.23 1.63-5.66e-4 3.26-2.45e-4 4.88 8.85e-4 4.37 5.68e-4 8.75-0.0111 13.1-0.0251 4.59-0.0126 9.17-0.0137 13.8-0.0161 8.67-0.00619 17.3-0.0226 26-0.0427 9.87-0.0224 19.7-0.0334 29.6-0.0434 20.3-0.0208 40.6-0.056 60.9-0.101 0.624-4.04 1.13-7.95 1.13-12 0.00282-0.939 0.00564-1.88 0.00854-2.85-0.00202-1.01-0.00405-2.02-0.00613-3.05 0.00175-1.08 0.0035-2.16 0.00531-3.27 0.00439-3.55 0.00149-7.1-0.00189-10.7 6.74e-4 -2.47 0.00164-4.94 0.0029-7.41 0.00147-5.17-6.64e-4 -10.3-0.00534-15.5-0.00571-6.64-0.00241-13.3 0.00357-19.9 0.00361-5.1 0.00247-10.2-1.28e-4 -15.3-6.68e-4 -2.45 1.55e-4 -4.9 0.00248-7.34 0.00253-3.41-0.00132-6.83-0.0069-10.2 0.00304-1.52 0.00304-1.52 0.00613-3.08-0.00282-0.928-0.00564-1.86-0.00854-2.81-3.77e-4 -0.807-7.54e-4 -1.61-0.00114-2.44-0.0476-2.28-0.0476-2.28-1.13-5.08-6.12-0.773-12-1.13-18.2-1.06-0.839 0.00379-1.68 0.00757-2.54 0.0115-2.65 0.0121-5.3 0.0307-7.95 0.051-3.5 0.0267-7.01 0.0466-10.5 0.0625-0.794 0.0083-1.59 0.0166-2.41 0.0251-0.751 0.0033-1.5 0.00661-2.28 0.01-0.652 0.00524-1.3 0.0105-1.98 0.0159-2.14-0.114-2.14-0.114-5.02-0.612-3.1-0.499-5.97-0.629-9.11-0.631-1.16-0.00315-2.32-0.0063-3.51-0.00955-1.85 0.00304-1.85 0.00304-3.74 0.00613-1.28-9.57e-4 -2.55-0.00191-3.87-0.0029-2.69-6.79e-4 -5.38 6.52e-4 -8.07 0.00534-3.45 0.00573-6.91 0.0024-10.4-0.00357-3.29-0.00447-6.59-0.00135-9.88 0.00113-1.24-0.00202-2.49-0.00405-3.77-0.00613-1.14 0.00315-2.28 0.0063-3.46 0.00955-1.01 7.96e-4 -2.02 0.00159-3.06 0.00241-2.25-0.129-2.25-0.129-3.28 1.13z" fill="#007EAF"/>
<path transform="translate(464,166)" d="m0 0c3.73 1.24 5.31 3.17 8 6l1.75 1.62c1.25 1.38 1.25 1.38 2.25 4.38l2 0.938 2 1.06c0.343 1.33 0.676 2.66 1 4 1.79 1.51 1.79 1.51 4 3 3.96 3.78 7.51 7.84 11.1 12 4.3 5.01 8.68 9.93 13.2 14.8 4.31 4.62 8.38 9.37 12.3 14.3 3.44 4.2 7.02 8.28 10.6 12.4 4.16 4.78 8.17 9.64 12.1 14.6 1.56 2.06 1.56 2.06 3.71 2.98 2.21 0.096 4.42 0.124 6.63 0.124 0.694 0.00128 1.39 0.00256 2.1 0.00387 2.35 0.00309 4.71-0.00102 7.06-0.00502 1.7 7.39e-4 3.4 0.00192 5.1 0.0035 4.71 0.00309 9.43-1.21e-4 14.1-0.00428 5.11-0.00342 10.2-0.00107 15.3 5.77e-4 8.97 0.00208 17.9 4.21e-4 26.9-0.00364 13.3-0.00602 26.7-0.00634 40-0.00546 22.4 0.00132 44.9-0.00203 67.3-0.00802 22.2-0.00592 44.5-0.00977 66.7-0.0109 1.03-5.16e-5 1.03-5.16e-5 2.09-1.04e-4 6.3-3.13e-4 12.6-6.01e-4 18.9-8.58e-4 15.7-6.39e-4 31.3-0.0016 47-0.00278 1.07-8e-5 1.07-8e-5 2.16-1.62e-4 34.7-0.00262 69.4-0.00893 104-0.0155 12.1-0.00229 24.1-0.00457 36.2-0.00677 0.747-1.37e-4 1.49-2.74e-4 2.27-4.15e-4 34.7-0.00634 69.5-0.0101 104-0.0131 2.25-1.98e-4 4.51-3.97e-4 6.76-5.97e-4 14.9-0.00132 29.9-0.00259 44.8-0.00384 29.7-0.00248 59.5-0.00522 89.2-0.00814 1.42-1.39e-4 2.83-2.78e-4 4.25-4.17e-4 86.5-0.00848 173-0.0226 283-0.0421 0.46-1.09 0.92-2.18 1.39-3.3 3.03-7.18 6.73-11.2 13.6-14.7 6.24-2.08 11.4-1.58 17.4 1.25 4.32 2.22 6.72 4.49 8.54 9.04 0.352 1.16 0.352 1.16 0.711 2.34 0.692 2.24 1.33 4.28 2.38 6.38 0.831 5.57 0.496 9.97-2.5 14.8-3.96 5.31-8.96 8.88-15.5 10.2-7.44 0.572-13.1-1.18-18.8-5.88-2.13-1.85-3.17-3.09-4.36-5.69-1.64-2.74-1.64-2.74-4.84-3.05-1.25 0.00132-2.5 0.00264-3.79 0.00401-1.05-0.00914-1.05-0.00914-2.12-0.0185-2.37-0.0144-4.73 0.00709-7.1 0.0281-1.71-0.00298-3.43-0.00815-5.14-0.0153-4.74-0.0135-9.48 0.00449-14.2 0.0272-5.15 0.0191-10.3 0.00933-15.4 0.00304-9.03-0.00704-18.1 0.00446-27.1 0.0279-13.4 0.0347-26.9 0.0407-40.3 0.0404-21.9 1.21e-4 -43.8 0.0203-65.7 0.0529-23.1 0.0343-46.1 0.0554-69.2 0.0574-1.04 9.18e-5 -1.04 9.18e-5 -2.11 1.85e-4 -8.47 6.96e-4 -16.9 7.91e-4 -25.4 7.31e-4 -13.6-4.3e-5 -27.3 0.00153-40.9 0.00321-1.08 1.29e-4 -1.08 1.29e-4 -2.18 2.6e-4 -34.2 0.00414-68.4 0.022-103 0.0442-2.27 0.00147-4.54 0.00294-6.81 0.0044-34.2 0.0221-68.4 0.0485-103 0.0813-3.8 0.00364-7.59 0.00726-11.4 0.0109-0.751 7.17e-4 -1.5 0.00143-2.28 0.00217-7.58 0.00723-15.2 0.0144-22.7 0.0216-2.27 0.00216-4.54 0.00432-6.8 0.00648-34.2 0.0325-68.3 0.0587-102 0.0609-0.718 4.79e-5 -1.44 9.59e-5 -2.18 1.45e-4 -15.1 9.56e-4 -30.1 3.71e-4 -45.2-0.00233-7.05-0.00125-14.1-0.00207-21.2-0.00262-0.694-5.93e-5 -1.39-1.19e-4 -2.1-1.8e-4 -22.4-0.00168-44.7 0.0244-67.1 0.0657-23.2 0.0428-46.3 0.0586-69.5 0.0422-13.4-0.0085-26.7 0.00562-40.1 0.0516-8.91 0.0285-17.8 0.0283-26.7 0.00431-5.08-0.0128-10.2-0.0128-15.2 0.0224-4.62 0.0318-9.25 0.0268-13.9-0.00757-1.66-0.0059-3.33 0.00162-4.99 0.0242-9.16 0.117-15.6-0.393-22.6-7.02-0.622-0.66-1.24-1.32-1.89-2-0.529-0.51-1.06-1.02-1.6-1.55-1.33-1.31-2.59-2.69-3.83-4.08-0.675-0.748-0.675-0.748-1.36-1.51-3.94-4.43-7.59-9.09-11.2-13.8-3.41-4.41-7.04-8.55-10.8-12.7-3.9-4.33-7.52-8.89-11.2-13.4-5.51-6.81-11.1-13.5-16.8-20.1-2.19-2.54-4.33-5.07-6.39-7.71-1.59-2.23-1.59-2.23-3.77-3.15-0.309-0.639-0.619-1.28-0.938-1.94-1.02-2.38-1.02-2.38-4.06-4.06v-3h-2c0-2 0-2 1.43-3.54 0.623-0.543 1.25-1.09 1.89-1.64 0.615-0.55 1.23-1.1 1.86-1.67 0.602-0.378 1.2-0.755 1.82-1.14z" fill="#0088B2"/>
<path transform="translate(29.6 -.313)" d="m0 0c7.64 0 12.8 0.731 18.4 6.22 2.4 2.62 4.57 5 5.99 8.28 0.88 1.97 0.88 1.97 2.81 2.42 2.45 0.432 4.74 0.524 7.23 0.528 1.01 0.00424 2.02 0.00848 3.06 0.0129 1.11-3.86e-4 2.22-7.72e-4 3.36-0.00117 1.18 0.00353 2.36 0.00705 3.57 0.0107 3.27 0.00884 6.54 0.0132 9.81 0.0158 3.53 0.0039 7.05 0.0135 10.6 0.0226 6.11 0.0149 12.2 0.0265 18.3 0.0359 8.84 0.0139 17.7 0.0351 26.5 0.0584 14.3 0.0379 28.7 0.0729 43 0.105 1.29 0.00285 1.29 0.00285 2.6 0.00576 12.2 0.0269 24.4 0.0507 36.6 0.0734 0.859 0.0016 1.72 0.00319 2.6 0.00484 0.858 0.00159 1.72 0.00319 2.6 0.00483 14.3 0.0267 28.6 0.0611 42.9 0.102 8.82 0.0248 17.6 0.0431 26.5 0.0532 6.04 0.00737 12.1 0.0219 18.1 0.0421 3.49 0.0114 6.98 0.0195 10.5 0.019 3.77 0.00107 7.55 0.0142 11.3 0.0306 1.11-0.00262 2.22-0.00523 3.37-0.00793 1 0.00685 2.01 0.0137 3.04 0.0208 1.31 0.0026 1.31 0.0026 2.64 0.00526 2.09 0.254 2.09 0.254 4.09 2.25 0.278 2.82 0.278 2.82 0.319 6.47 0.01 0.664 0.0201 1.33 0.0304 2.01 0.0309 2.2 0.0479 4.39 0.0648 6.59 0.0187 1.52 0.0383 3.04 0.0587 4.57 0.0514 4.01 0.091 8.02 0.128 12 0.04 4.09 0.0911 8.18 0.141 12.3 0.0969 8.02 0.181 16 0.258 24.1h-11l-1-8h-1c-0.882-12.1-1.07-24.1-1.03-36.2 0.00251-1.54 0.00479-3.07 0.00684-4.61 0.00544-3.72 0.014-7.44 0.0244-11.2-34.9 0.105-69.8 0.214-105 0.331-4.11 0.0138-8.23 0.0275-12.3 0.0412-1.23 0.00409-1.23 0.00409-2.48 0.00827-13.3 0.0441-26.6 0.0847-39.8 0.124-13.6 0.0404-27.2 0.0846-40.9 0.132-8.41 0.0293-16.8 0.0557-25.2 0.0783-5.76 0.0158-11.5 0.0352-17.3 0.0575-3.33 0.0128-6.66 0.0234-9.98 0.0308-3.6 0.00822-7.2 0.0225-10.8 0.0384-1.06 9.78e-4 -2.13 0.00196-3.22 0.00296-1.43 0.00821-1.43 0.00821-2.9 0.0166-0.832 0.00266-1.66 0.00532-2.52 0.00805-1.89-0.0753-1.89-0.0753-2.88 1.13-0.273 1.66-0.518 3.33-0.75 5-0.972 5.6-2.71 10.5-6.25 15-0.99 0.33-1.98 0.66-3 1-0.268 0.598-0.536 1.2-0.812 1.81-1.9 3.5-5.17 5.5-8.91 6.77-9.56 1.74-18.6 1.52-26.9-3.82-7.25-5.49-13.4-11.8-14.8-21.1-0.42-8.73 1.5-14.6 6.52-21.7 0.468-0.679 0.936-1.36 1.42-2.06 3.26-4.24 6.98-6.6 11.7-9 3.66-1.86 6.15-2.22 10.4-2.26z" fill="#0077A6"/>
<path transform="translate(834 81.8)" d="m0 0c1.69-0.0193 1.69-0.0193 3.42-0.0389 1.83-0.0111 1.83-0.0111 3.7-0.0224 1.27-0.00807 2.53-0.0161 3.84-0.0245 2.69-0.0138 5.37-0.0249 8.06-0.0324 2.73-0.00879 5.45-0.0295 8.17-0.0615 40.2-0.462 40.2-0.462 57.1 14.6 5.85 6.22 8.72 14.5 9.38 22.9-0.646 9.86-4.4 18.2-11.5 25-7.87 6.61-15.6 9.99-25.7 11.8 0 3.29 0.509 4.24 2.13 7.01 0.47 0.81 0.94 1.62 1.42 2.45 0.518 0.879 1.04 1.76 1.57 2.66 1.1 1.89 2.19 3.78 3.29 5.67 0.582 1 1.16 2 1.76 3.04 3.77 6.56 7.43 13.2 11.1 19.8 3.35 6.05 3.35 6.05 7.08 11.9 1.88 2.85 2.32 5.11 2.64 8.49-3.5 2.4-5.74 3.6-10 3-1.76-1.73-1.76-1.73-3.35-4.18-0.894-1.37-0.894-1.37-1.81-2.78-3.22-5.31-6.25-10.7-9.22-16.2-0.659-1.2-1.32-2.4-1.98-3.6-1.3-2.35-2.59-4.71-3.88-7.07-2.27-4.13-4.57-8.23-6.89-12.3-0.689-1.22-1.38-2.45-2.07-3.67-1.15-2.03-2.3-4.07-3.46-6.09-0.465-0.82-0.931-1.64-1.41-2.48-0.383-0.668-0.766-1.34-1.16-2.02-0.777-1.6-0.777-1.6-0.777-3.6l-2.22 0.219c-8.12 0.696-16.2 0.844-24.3 0.812-1.66-0.00338-1.66-0.00338-3.35-0.00684-2.71-0.00584-5.41-0.014-8.12-0.0244-0.0155 1.12-0.0155 1.12-0.0312 2.27-0.0978 7.05-0.2 14.1-0.308 21.1-0.0553 3.62-0.109 7.25-0.158 10.9-0.0476 3.49-0.0999 6.99-0.156 10.5-0.0304 1.99-0.0559 3.98-0.0813 5.96-0.0199 1.2-0.0399 2.4-0.0604 3.64-0.0155 1.06-0.0311 2.13-0.0471 3.22-0.158 2.4-0.158 2.4-1.16 3.4h-11v-135c3.49-0.872 6.07-1.14 9.62-1.18zm2.38 11.2v52c11.3 0.0619 11.3 0.0619 22.8 0.125 2.34 0.0182 4.69 0.0364 7.1 0.0552 22.3 0.504 22.3 0.504 41.3-10.2 5.3-5.78 7.47-10.4 7.26-18.3-0.939-6.88-4.23-12.1-9.49-16.6-9.06-6.18-17.7-7.72-28.5-7.52-1.03 0.00403-2.06 0.00806-3.12 0.0122-3.8 0.0207-7.6 0.0765-11.4 0.128l-25.8 0.25z" fill="#000002"/>
<path transform="translate(1296 81.9)" d="m0 0c1.17-0.00263 1.17-0.00263 2.36-0.00531 2.58-0.0044 5.16-0.00148 7.73 0.00189 1.8-6.74e-4 3.6-0.00165 5.4-0.0029 3.78-0.00148 7.56 6.69e-4 11.3 0.00534 4.81 0.00566 9.63 0.00244 14.4-0.00357 3.73-0.00364 7.45-0.00245 11.2 1.28e-4 1.77 6.61e-4 3.55-1.3e-4 5.32-0.00248 21-0.0217 21-0.0217 29.4 1.14 1 1 1 1 1.19 4.44-0.188 3.56-0.188 3.56-2.19 5.56-2.74 0.188-5.38 0.252-8.12 0.227-0.839 2.92e-4 -1.68 5.84e-4 -2.54 8.85e-4 -2.78-0.0014-5.56-0.017-8.34-0.0326-1.93-0.00373-3.85-0.00658-5.78-0.00858-5.07-0.00765-10.1-0.0273-15.2-0.0494-6.08-0.024-12.2-0.0332-18.3-0.0449-9.25-0.0194-18.5-0.0577-27.7-0.0924v52c16.5-0.0394 16.5-0.0394 33-0.0901 25-0.052 25-0.052 33 1.09 1 1 1 1 1.13 3.03-0.00258 0.815-0.00516 1.63-0.00781 2.47 0.00387 1.22 0.00387 1.22 0.00781 2.47-0.133 2.03-0.133 2.03-1.13 3.03-2.06 0.0941-4.11 0.117-6.17 0.114-0.644 1.46e-4 -1.29 2.92e-4 -1.95 4.43e-4 -2.14-6.99e-4 -4.27-0.00849-6.41-0.0163-1.48-0.00186-2.96-0.00329-4.43-0.00429-3.9-0.00382-7.8-0.0137-11.7-0.0247-4.67-0.012-9.35-0.0166-14-0.0225-7.11-0.00971-14.2-0.0289-21.3-0.0462v52c6.18-0.0232 12.4-0.0464 18.7-0.0703 3.91-0.0102 7.82-0.0198 11.7-0.0273 6.21-0.012 12.4-0.0262 18.6-0.0532 5.01-0.0217 10-0.0337 15-0.0389 1.91-0.00371 3.83-0.0109 5.74-0.0217 2.67-0.0144 5.34-0.0165 8.02-0.0156 0.797-0.00719 1.59-0.0144 2.42-0.0218 5.48 0.0207 5.48 0.0207 7.71 2.25 0.328 2.71 0.131 5.25 0 8-5 5-26.3 2.16-33.4 2.17-1.74 0.00322-3.47 0.00659-5.21 0.0101-3.61 0.00594-7.22 0.00785-10.8 0.00725-4.62-1.02e-4 -9.24 0.0136-13.9 0.0308-3.57 0.0111-7.15 0.0131-10.7 0.0126-1.7 0.00118-3.41 0.00558-5.11 0.0133-2.38 0.00982-4.75 0.00692-7.13 8.95e-4 -0.695 0.00562-1.39 0.0112-2.11 0.017-4.23-0.0272-7.66-0.719-11.6-2.26-0.812-3.56-1.13-6.84-1.13-10.5-0.00282-1.09-0.00564-2.18-0.00854-3.3 0.00202-1.19 0.00405-2.37 0.00613-3.59-0.00175-1.26-0.0035-2.51-0.00531-3.81-0.00455-3.44-0.0028-6.87 3.79e-4 -10.3 0.00253-3.6 1.83e-4 -7.19-0.00139-10.8-0.00182-6.03 5.75e-4 -12.1 0.00534-18.1 0.00545-6.98 0.00367-14-0.00183-20.9-0.00453-5.99-0.00518-12-0.00256-18 0.00156-3.58 0.00176-7.16-0.00154-10.7-0.00342-3.99 0.00131-7.97 0.0069-12-0.00202-1.19-0.00405-2.38-0.00613-3.61 0.00282-1.08 0.00564-2.16 0.00854-3.28 3.77e-4 -0.943 7.54e-4 -1.89 0.00114-2.86 0.126-2.25 0.126-2.25 1.13-4.25 3.75-1.47 7.81-1.14 11.8-1.13z" fill="#000002"/>
<path transform="translate(709 81.8)" d="m0 0c0.655-0.0019 1.31-0.0038 1.98-0.00575 2.17-0.00371 4.34 0.00702 6.5 0.0182 1.53 0.00119 3.06 0.00164 4.59 0.00139 3.22 0.00157 6.44 0.00985 9.65 0.0233 4.05 0.0167 8.1 0.0207 12.1 0.0202 14.6 4.56e-4 29.2 0.0552 43.8 0.635 0.995 0.0385 1.99 0.077 3.02 0.117 6.62 0.305 6.62 0.305 7.75 1.43 0.133 1.81 0.133 1.81 0.125 4 0.00387 1.08 0.00387 1.08 0.00781 2.19-0.133 1.81-0.133 1.81-1.13 2.81-2.71 0.0951-5.39 0.126-8.1 0.114-0.849 1.46e-4 -1.7 2.92e-4 -2.57 4.43e-4 -2.82-6.99e-4 -5.64-0.00849-8.46-0.0163-1.95-0.00186-3.9-0.00329-5.85-0.00429-5.14-0.00383-10.3-0.0137-15.4-0.0247-6.16-0.012-12.3-0.0166-18.5-0.0225-9.37-0.00971-18.7-0.0289-28.1-0.0462l1 52 18.4-0.0625c15.9-0.0266 31.7 0.251 47.6 1.06v11h-67v52c6.18-0.0232 12.4-0.0464 18.7-0.0703 3.91-0.0102 7.82-0.0198 11.7-0.0273 6.21-0.012 12.4-0.0262 18.6-0.0532 5.01-0.0217 10-0.0337 15-0.0389 1.91-0.00371 3.83-0.0109 5.74-0.0217 2.67-0.0144 5.34-0.0165 8.02-0.0156 0.797-0.00719 1.59-0.0144 2.42-0.0218 5.48 0.0207 5.48 0.0207 7.71 2.25 0.328 2.71 0.131 5.25 0 8-2.07 2.07-6.37 1.42-9.22 1.55-0.911 0.0418-1.82 0.0837-2.76 0.127-14.2 0.569-28.3 0.51-42.5 0.508-4.21-1.03e-4 -8.42 0.0137-12.6 0.0308-3.27 0.0111-6.54 0.0131-9.81 0.0126-1.55 0.00118-3.11 0.00557-4.66 0.0133-2.16 0.0098-4.31 0.00692-6.47 8.95e-4 -1.22 0.00143-2.44 0.00285-3.7 0.00432-3.23-0.247-3.23-0.247-8.23-2.25v-135c4.19-2.1 6.01-2.25 10.6-2.24z" fill="#000002"/>
<path transform="translate(1492 93.3)" d="m0 0c5.54 4.6 11.3 10.9 12.6 18.2-0.438 2.5-0.438 2.5-2.69 4.88-2.75 1.62-2.75 1.62-4.66 1.56-3.1-1.39-4.35-3.56-6.28-6.31-0.695-0.977-1.39-1.95-2.11-2.96-1.71-2.66-1.71-2.66-2.71-5.66-1.76-1.12-1.76-1.12-4-2-0.891-0.402-1.78-0.804-2.7-1.22-13.7-5.88-28.2-8.52-42.8-3.82-8.62 3.64-14.8 9.28-19.3 17.4-1.83 5.9-2.1 11.1 0.375 16.8 4.04 7.14 10.9 10.5 18.5 12.8 3.51 0.802 6.91 1.2 10.5 1.43 38.1 2.6 38.1 2.6 51.5 17.6 5.35 7.87 6.69 14.6 6 24-1.86 9.69-8.17 19.1-16 25-16.8 9.81-34 11.9-53 8-11.7-3.47-22.9-8.9-29.6-19.5-3.52-6.6-3.52-6.6-3.15-9.69 0.734-1.78 0.734-1.78 2.48-3.03 2.66-0.888 4.46-1.09 7.25-0.75 1.66 1.79 1.66 1.79 3.06 4.19 0.51 0.824 1.02 1.65 1.55 2.5 0.459 0.764 0.918 1.53 1.39 2.32 4.5 6.83 10.7 9.68 18.6 11.4 13.2 2.58 28.9 3.93 41-2.89 6.72-4.85 10.8-10.5 12.8-18.5 1.02-6.39-0.0205-10.7-3.44-16.2-8.55-9.25-21.9-10-33.6-10.7-16.5-1.13-32.1-3.47-43.9-16.2-5.69-7.31-8.2-15.1-7.31-24.3 1.87-10.5 8.26-19.7 16.8-25.9 21.5-13.9 51.8-14 72.9 1.48z" fill="#000002"/>
<path transform="translate(658 94.3)" d="m0 0c5.73 5.86 9.16 11.6 10.6 19.7-2.69 2.12-2.69 2.12-6 4-3.22-0.745-4.62-1.47-6.55-4.17-0.436-0.851-0.871-1.7-1.32-2.58-4.88-8.6-10.8-12.2-20.1-15.2l-2.08-0.688c-11.7-3.2-26-2.63-36.7 3.06-6.85 4.1-12.3 8.69-14.9 16.5-1.04 5.7-1.29 11.2 1.25 16.5 7.72 8.53 16.3 12.4 27.8 13 19.4 1.25 37.8 2.46 51.9 17.5 4.91 6.18 6.96 13.3 6.69 21.1-1.44 11.5-6.95 20.2-15.8 27.5-14.6 10.3-32.3 12-49.6 9.25-8.66-1.76-16.4-4.44-23.6-9.73-0.821-0.601-1.64-1.2-2.49-1.82-2.68-2.32-4.37-4.57-6.26-7.55-0.593-0.915-1.19-1.83-1.8-2.77-1.53-3.01-2.08-5.52-2.45-8.85 3.48-2.39 5.76-3.66 10-3 1.77 2.08 1.77 2.08 3.25 4.81 0.5 0.893 1 1.79 1.52 2.71 1.23 2.48 1.23 2.48 2.23 5.48 1.72 1.03 1.72 1.03 4 2 1.05 0.646 2.1 1.29 3.18 1.96 11.7 6.68 29.9 6.74 42.6 3.74 8.97-2.82 14.8-7.27 19.2-15.6 2.53-5.28 2.6-10.4 2.02-16.1-3.57-7.41-9.63-11.4-17.1-14.2-8.33-2.44-16.9-2.88-25.6-3.28-13.4-0.666-26.1-4.53-36.3-13.6-5.92-7.26-9.68-14.9-9.35-24.4 1.54-11.7 8.08-20.3 16.9-27.8 21-15.5 54.4-12.7 74.8 2.49z" fill="#000002"/>
<path transform="translate(1251,96)" d="m0 0c1.79 1.52 1.79 1.52 3 3-0.245 3.34-0.605 4.61-3 7-5.72 0.11-9.43-1.62-14.4-4.31-19-10-40-9.73-60.3-3.91-15 5.24-26.8 16.6-34.3 30.2-5.79 12.5-7.54 27.1-3.5 40.5 6.66 16.5 19.6 28.2 35.5 35.5 4.3 1.4 8.54 2.31 13 3 0.766 0.129 1.53 0.258 2.32 0.391 21.1 2.95 41.4-0.558 59-12.6 2.72-1.74 2.72-1.74 5.41-1.68 2.49 1.01 3.82 1.69 5.31 3.94-0.546 4.27-2.65 5.84-5.87 8.43-18.7 13.8-42.3 17.6-64.9 14.7-17.7-2.69-32.5-10.6-45.2-23.1-0.646-0.585-1.29-1.17-1.96-1.77-10.4-9.63-17.5-25-18.2-39.1-0.339-18 3.52-33.5 16.2-46.8 6.72-6.75 13.4-13 22-17.3 1.04-0.538 2.07-1.08 3.14-1.63 27-13.3 62-11.9 86.9 5.63z" fill="#000002"/>
<path transform="translate(954 82.6)" d="m0 0c2.79 1.98 3.45 4.05 4.74 7.2 0.504 1.22 1.01 2.44 1.53 3.7 0.54 1.35 1.08 2.69 1.62 4.04 0.572 1.4 1.14 2.8 1.72 4.19 1.51 3.68 3 7.37 4.48 11.1 0.866 2.15 1.73 4.3 2.61 6.45 3.66 9.04 7.28 18.1 10.9 27.1 1.42 3.57 2.85 7.14 4.27 10.7 2.56 6.42 5.12 12.8 7.68 19.3 1.04 2.61 2.09 5.21 3.15 7.82 0.279 0.688 0.557 1.38 0.844 2.08 0.538 1.33 1.08 2.65 1.62 3.98 1.84 4.54 1.84 4.54 1.84 6.77 2.84-2.44 3.92-4.82 5.24-8.29 0.629-1.63 0.629-1.63 1.27-3.3 0.449-1.19 0.899-2.37 1.36-3.6 0.987-2.57 1.98-5.13 2.97-7.69 0.257-0.666 0.514-1.33 0.779-2.02 2.81-7.28 5.74-14.5 8.69-21.7 0.267-0.656 0.534-1.31 0.81-1.99 5.76-14.1 11.6-28.2 17.4-42.4 3.17-7.67 6.33-15.4 9.49-23 4.55-0.178 7.88 0.00215 12 2-5.1 16.6-11.7 32.6-18.2 48.7-1.19 2.96-2.37 5.92-3.56 8.88-1.16 2.89-2.31 5.77-3.47 8.66-0.546 1.36-1.09 2.72-1.64 4.08-2.87 7.15-5.83 14.2-9.06 21.2-1.53 3.35-2.9 6.75-4.26 10.2-0.553 1.38-1.11 2.76-1.66 4.14-0.845 2.12-1.69 4.23-2.53 6.35-8.68 21.9-8.68 21.9-13 23.8-2.66-0.0356-2.66-0.0356-5.28-2.06-2.51-3.14-3.95-5.93-5.47-9.65-0.265-0.641-0.53-1.28-0.803-1.94-0.841-2.04-1.66-4.09-2.49-6.14-0.543-1.33-1.09-2.65-1.63-3.98-1.11-2.7-2.21-5.4-3.3-8.11-1.71-4.22-3.44-8.42-5.17-12.6-5.16-12.5-10.2-25-15.3-37.6-1.85-4.6-3.72-9.2-5.59-13.8-2.02-4.94-4.02-9.89-6.01-14.8-0.777-1.92-1.56-3.84-2.35-5.76-1.1-2.68-2.18-5.38-3.26-8.07-0.335-0.802-0.669-1.6-1.01-2.43-2.17-5.52-2.17-5.52-1.23-8.22 2.16-3.19 5.57-4.34 9.27-3.25z" fill="#000002"/>
<path transform="translate(526,235)" d="m0 0c6.02 4.48 10.4 10.1 15 16 3.02 4.05 3.02 4.05 7 7 2.21 0.096 4.43 0.124 6.64 0.124 0.695 0.00128 1.39 0.00256 2.11 0.00387 2.36 0.00309 4.71-0.00102 7.07-0.00502 1.7 7.39e-4 3.41 0.00192 5.11 0.0035 4.72 0.00309 9.44-1.21e-4 14.2-0.00428 5.12-0.00342 10.2-0.00107 15.4 5.77e-4 8.98 0.00208 18 4.21e-4 26.9-0.00364 13.4-0.00602 26.7-0.00634 40.1-0.00546 22.5 0.00132 44.9-0.00203 67.4-0.00802 22.3-0.00592 44.5-0.00977 66.8-0.0109 1.04-5.16e-5 1.04-5.16e-5 2.09-1.04e-4 6.31-3.13e-4 12.6-6.01e-4 18.9-8.58e-4 15.7-6.39e-4 31.4-0.0016 47-0.00278 1.07-8e-5 1.07-8e-5 2.16-1.62e-4 34.8-0.00262 69.5-0.00893 104-0.0155 12.1-0.00229 24.1-0.00457 36.2-0.00677 0.748-1.37e-4 1.5-2.74e-4 2.27-4.15e-4 34.8-0.00634 69.5-0.0101 104-0.0131 2.26-1.98e-4 4.51-3.97e-4 6.77-5.97e-4 15-0.00132 29.9-0.00259 44.9-0.00384 29.8-0.00248 59.5-0.00522 89.3-0.00814 1.42-1.39e-4 2.83-2.78e-4 4.25-4.17e-4 85.6-0.00839 171-0.0223 283-0.0421l-1 4c-87.7 0.0793-175 0.156-284 0.212-1.42 6.97e-4 -2.83 0.00139-4.25 0.00209-29.7 0.0146-59.4 0.0282-89.1 0.0406-14.9 0.00623-29.9 0.0127-44.8 0.0193-2.25 9.96e-4 -4.5 0.00199-6.76 0.00298-34.7 0.0153-69.4 0.0348-104 0.0667-1.12 0.00103-1.12 0.00103-2.26 0.00207-12 0.0111-24 0.0225-36.1 0.0339-34.6 0.033-69.3 0.0634-104 0.0764-1.07 4.02e-4 -1.07 4.02e-4 -2.16 8.11e-4 -15.6 0.00583-31.3 0.0103-46.9 0.0135-6.29 0.00131-12.6 0.00281-18.9 0.00438-1.03 2.51e-4 -1.03 2.51e-4 -2.09 5.06e-4 -22.2 0.00548-44.4 0.0268-66.5 0.0565-23 0.0306-45.9 0.0437-68.9 0.0361-13.2-0.00381-26.5 0.00642-39.7 0.0365-8.84 0.0187-17.7 0.0194-26.5 0.00517-5.04-0.00758-10.1-0.00712-15.1 0.0153-4.58 0.0202-9.17 0.0175-13.8-0.00372-1.65-0.00358-3.3 0.00128-4.95 0.0155-14.8 0.119-14.8 0.119-20.8-4.27-1.27-1.37-1.27-1.37-2.27-4.37-1.64-1.69-3.31-3.35-5-5-1.69-1.98-3.36-3.98-5-6-0.763-0.887-1.53-1.77-2.31-2.69-1.69-2.31-1.69-2.31-1.69-5.31z" fill="#000002"/>
<path transform="translate(520,89)" d="m0 0c2.31 1.06 2.31 1.06 4 2-0.387 5.4-2.47 8.32-6 12.2-1.01 1.15-2.02 2.29-3.03 3.44-0.756 0.851-0.756 0.851-1.53 1.72-2.07 2.37-4.04 4.82-6.01 7.28-3.82 4.7-7.86 9.16-12 13.6-3.22 3.58-6.23 7.32-9.25 11.1-2.19 2.65-4.46 5.21-6.78 7.75-3.08 3.4-6.09 6.83-9 10.4-0.992 1.2-0.992 1.2-2 2.43-1.71 2.12-1.71 2.12-1.43 5.13l-2.38 0.25c-2.77 0.458-2.77 0.458-3.75 2.75-0.289 0.66-0.578 1.32-0.875 2l-3 1c-0.675 1.33-1.34 2.66-2 4-1.65 1.9-3.32 3.74-5.06 5.56-4.37 4.68-8.49 9.48-12.5 14.5-3.39 4.13-6.9 8.16-10.4 12.2-2.78 3.19-5.55 6.39-8.28 9.64-0.525 0.622-1.05 1.24-1.59 1.89-0.983 1.17-1.96 2.34-2.93 3.51-3.4 4.02-7.14 7.42-11.2 10.7-6.09-2.14-6.09-2.14-8-5 0.203-5.17 3.21-8.04 6.5-11.7 0.545-0.62 1.09-1.24 1.65-1.88 1.61-1.82 3.22-3.63 4.85-5.43 0.772-0.861 1.54-1.72 2.34-2.61 1.41-1.57 2.83-3.14 4.25-4.7 7.68-8.57 15.2-17.3 22.4-26.2 2.48-3.01 5.11-5.86 7.8-8.68 1.59-1.95 1.59-1.95 1.21-5.75l2.31-0.688c3.3-1.61 4.19-3 5.69-6.31v-4l4 1c5.74-6.19 11.3-12.5 16.6-19 6.27-7.67 12.6-15.3 19.7-22.2 3.03-3.13 5.69-6.58 8.42-9.96 11-13.4 11-13.4 17.3-11.8z" fill="#000002"/>
<path transform="translate(337,88)" d="m0 0c-1.54 1.54-2.99 1.14-5.14 1.16-1.34 0.0147-1.34 0.0147-2.71 0.0297-1.48 0.00863-1.48 0.00863-2.99 0.0174-1.03 0.0099-2.07 0.0198-3.13 0.03-3.44 0.0317-6.87 0.0564-10.3 0.0811-2.38 0.0206-4.75 0.0416-7.13 0.063-6.27 0.0553-12.5 0.105-18.8 0.153-6.39 0.0501-12.8 0.106-19.2 0.161-12.5 0.108-25.1 0.209-37.6 0.307l-1 3c-0.748 0.0606-1.5 0.121-2.27 0.184-0.985 0.0838-1.97 0.168-2.98 0.254-1.46 0.122-1.46 0.122-2.95 0.246-2.36 0.267-4.52 0.67-6.8 1.32v-1l-21-1v2c-2.81 0.625-2.81 0.625-6 1l-3-2c-2.19-0.0631-2.19-0.0631-4.5 0.312-1.16 0.149-1.16 0.149-2.34 0.301-2.33 0.364-2.33 0.364-5.16 1.39 5.95 0.145 11.9 0.287 17.9 0.427 2.02 0.0478 4.04 0.0963 6.05 0.146 11.2 0.272 22.3 0.485 33.5 0.396 4.88 0.043 9.7 0.445 14.5 1.03v1c-0.631-0.00524-1.26-0.0105-1.91-0.0159-2.84-0.0207-5.68-0.0338-8.53-0.0466-0.993-0.00838-1.99-0.0168-3.01-0.0254-0.944-0.00322-1.89-0.00645-2.86-0.00977-0.875-0.00524-1.75-0.0105-2.65-0.0159-2.04-0.114-2.04-0.114-3.04 1.11-1.75 0.108-3.5 0.146-5.25 0.158-1.12 0.0103-2.24 0.0205-3.4 0.0311-1.23 0.0073-2.45 0.0146-3.71 0.0221-2.59 0.0281-5.17 0.0568-7.76 0.0859-4.08 0.0422-8.17 0.079-12.3 0.104-3.94 0.0253-7.87 0.0737-11.8 0.122-1.81 0.00488-1.81 0.00488-3.65 0.00986-18 0.258-33.3 6.75-46.2 19.5-3.71 4.3-7.46 8.91-10 14h-2c-0.182 0.675-0.364 1.35-0.551 2.05-0.251 0.892-0.503 1.78-0.762 2.7-0.365 1.32-0.365 1.32-0.738 2.67-0.981 2.66-2.16 4.39-3.95 6.58-2.24 2.9-2.24 2.9-2.5 6.5-0.5 3.5-0.5 3.5-2.5 6.5v3l-7 2c-2.72-17.8 2.79-33.5 13-48 0.51-0.77 1.02-1.54 1.55-2.33 10.7-15.1 28.6-23.7 46.3-27.3 6.59-1.1 13.3-0.946 20-0.93 1.71-0.0104 3.43-0.0225 5.14-0.0362 4.6-0.0318 9.2-0.0396 13.8-0.0425 4.83-0.00691 9.66-0.0355 14.5-0.0614 8.09-0.0404 16.2-0.0663 24.3-0.0821 10.4-0.0203 20.8-0.0636 31.2-0.114 8.94-0.0436 17.9-0.0782 26.8-0.111 2.87-0.0106 5.75-0.0223 8.62-0.0339 4.5-0.0175 9-0.0295 13.5-0.0371 1.65-0.00352 3.31-0.00875 4.96-0.0158 2.25-0.00922 4.5-0.0122 6.75-0.0135 1.26-0.0031 2.52-0.0062 3.82-0.0094 2.92 0.119 2.92 0.119 4.92 1.12z" fill="#00709C"/>
<path transform="translate(35,90)" d="m0 0c2 2 2 2 2.25 4.43-0.00184 1.03-0.00369 2.06-0.00559 3.12 0.00275 1.18 0.0055 2.36 0.00833 3.58-0.00719 1.3-0.0144 2.6-0.0218 3.95-5.64e-4 1.38-2.48e-4 2.76 8.85e-4 4.14 5.75e-4 3.75-0.0112 7.5-0.0251 11.3-0.0125 3.92-0.0137 7.84-0.0161 11.8-0.00622 7.42-0.0226 14.8-0.0427 22.3-0.0223 8.45-0.0333 16.9-0.0434 25.3-0.0209 17.4-0.0565 34.8-0.101 52.2h-11c-1.31-2.61-1.13-4.54-1.14-7.47-0.00571-1.16-0.0114-2.32-0.0173-3.52-0.00112-1.28-0.00224-2.56-0.00339-3.88-0.00463-1.36-0.00965-2.71-0.015-4.07-0.0131-3.69-0.0196-7.38-0.024-11.1-0.00293-2.3-0.00703-4.61-0.0115-6.91-0.0137-7.2-0.0233-14.4-0.0272-21.6-0.00449-8.32-0.0221-16.6-0.051-25-0.0216-6.43-0.0317-12.9-0.033-19.3-0.00105-3.84-0.00701-7.68-0.0248-11.5-0.0164-3.61-0.0187-7.22-0.00986-10.8 0.00114-1.96-0.0126-3.93-0.0268-5.89 0.00557-1.16 0.0111-2.32 0.0169-3.52-0.00147-1.01-0.00293-2.03-0.00444-3.07 0.123-0.791 0.245-1.58 0.372-2.4 3.67-2.45 5.66-2.32 10-2z" fill="#000002"/>
<path transform="translate(464,166)" d="m0 0c3.73 1.24 5.31 3.17 8 6l1.75 1.62c1.25 1.38 1.25 1.38 2.25 4.38l2 0.938 2 1.06c0.343 1.33 0.676 2.66 1 4 1.79 1.51 1.79 1.51 4 3 3.96 3.78 7.51 7.84 11.1 12 4.3 5.01 8.68 9.93 13.2 14.8 13.7 14.7 13.7 14.7 16.8 21.2l1.5 2.44c1.5 2.56 1.5 2.56 2.5 5.31l1 2.25 3 1c1.35 1.99 2.69 3.99 4 6l3 2c0.402 0.959 0.402 0.959 0.812 1.94 1.83 3.18 3.77 3.74 7.19 5.06 3.73 0.448 7.44 0.511 11.2 0.562 1.97 0.0344 3.95 0.077 5.92 0.129 0.868 0.0123 1.74 0.0247 2.63 0.0374 2.26 0.271 2.26 0.271 5.26 2.27h-9l1 3c-4.31 0.942-8.61 1.59-13 2-0.935 0.113-1.87 0.227-2.83 0.344-5.83 0.419-9.53 0.0183-14.2-3.59-1.69-1.54-3.33-3.13-4.94-4.75-0.884-0.895-1.77-1.79-2.68-2.71-5.51-5.75-10.5-11.9-15.3-18.2-3.41-4.41-7.04-8.55-10.8-12.7-3.9-4.33-7.52-8.89-11.2-13.4-5.51-6.81-11.1-13.5-16.8-20.1-2.19-2.54-4.33-5.07-6.39-7.71-1.59-2.23-1.59-2.23-3.77-3.15-0.309-0.639-0.619-1.28-0.938-1.94-1.02-2.38-1.02-2.38-4.06-4.06v-3h-2c0-2 0-2 1.43-3.54 0.623-0.543 1.25-1.09 1.89-1.64 0.615-0.55 1.23-1.1 1.86-1.67 0.602-0.378 1.2-0.755 1.82-1.14z" fill="#0080B0"/>
<path transform="translate(1097,84)" d="m0 0c0.0233 17.6 0.041 35.2 0.0518 52.8 0.00516 8.16 0.0122 16.3 0.0236 24.5 0.00995 7.11 0.0164 14.2 0.0186 21.3 0.00131 3.77 0.00439 7.54 0.0116 11.3 0.00801 4.2 0.00826 8.4 0.0078 12.6 0.0036 1.26 0.00719 2.52 0.0109 3.81-0.00137 1.14-0.00275 2.27-0.00417 3.45 9.22e-4 0.995 0.00184 1.99 0.00279 3.01-0.123 2.23-0.123 2.23-1.12 3.23-2 0.168-2 0.168-4.44 0.188-0.803 0.0142-1.61 0.0284-2.43 0.043-2.13-0.23-2.13-0.23-4.13-2.23-0.246-2.32-0.246-2.32-0.241-5.29-0.00275-1.12-0.0055-2.24-0.00833-3.4 0.00719-1.24 0.0144-2.47 0.0218-3.75-4.38e-4 -1.95-4.38e-4 -1.95-8.85e-4 -3.93-5.75e-4 -3.56 0.0112-7.13 0.0251-10.7 0.0125-3.72 0.0137-7.44 0.0161-11.2 0.00622-7.05 0.0226-14.1 0.0427-21.2 0.0223-8.03 0.0333-16.1 0.0434-24.1 0.0209-16.5 0.0561-33 0.101-49.5 4.46-2.02 7.17-1.95 12-1z" fill="#000002"/>
<path transform="translate(1576 241)" d="m0 0c4.32 2.22 6.72 4.49 8.54 9.04 0.235 0.771 0.469 1.54 0.711 2.34 0.692 2.24 1.33 4.28 2.38 6.38 0.831 5.57 0.496 9.97-2.5 14.8-3.96 5.31-8.96 8.88-15.5 10.2-7.48 0.575-13.1-1.25-18.9-5.88-2.3-2.09-3.01-2.97-4-6l-0.0625-2.12 2-1-2.44-2.38c-2.56-2.62-2.56-2.62-3.56-4.62 1.15-6.95 3.86-13.1 9-18 8.13-5.69 15.4-6.96 24.4-2.75z" fill="#007EAF"/>
<path transform="translate(1361,278)" d="m0 0c-0.125 0.611-0.251 1.22-0.38 1.85-0.606 2.97-1.21 5.93-1.81 8.9-0.225 1.11-0.45 2.22-0.681 3.37-1.22 6.09-2.38 12.2-3.44 18.3-0.211 1.22-0.422 2.44-0.64 3.7-0.401 2.34-0.794 4.68-1.18 7.03-1.34 7.84-3.37 15.3-5.88 22.8h-5v-7c-0.447 0.41-0.895 0.82-1.36 1.24-5.35 4.77-9.41 7.25-16.7 7-4.44-0.559-6.44-2.67-9.23-5.99-3.45-6.65-2.61-15.4-0.922-22.5 2.64-7.64 6.08-14.6 13.4-18.5 7.38-2.9 12.9-1.22 19.9 1.81 0.629 0.289 1.26 0.578 1.91 0.875 0.11-0.822 0.219-1.64 0.332-2.49 2.04-14.4 2.04-14.4 4.67-20.5 2.67-1.33 4.17-0.671 7 0zm-36 31c-3.56 6.87-6.09 15.4-4.59 23.1 1.12 3.24 2.42 4.78 5.28 6.64 4.97 0.375 7.6-1.6 11.3-4.75 6.09-5.83 8.82-13.8 10-22-0.975-3.67-1.76-4.8-4.69-7.31-7.3-3.72-12.5-1.9-17.3 4.31z" fill="#000002"/>
<path transform="translate(236 88.9)" d="m0 0c1.26 7.55e-5 2.52 1.51e-4 3.82 2.29e-4 1.38 0.00511 2.76 0.0103 4.14 0.0156 1.41 0.00186 2.82 0.00329 4.23 0.00429 3.71 0.00382 7.42 0.0136 11.1 0.0247 3.79 0.0102 7.57 0.0148 11.4 0.0198 7.43 0.0107 14.9 0.0278 22.3 0.0488v1c0.804 0.124 1.61 0.248 2.44 0.375l2.56 0.625 1 2c0.748-0.0116 1.5-0.0232 2.27-0.0352 0.985-0.00902 1.97-0.018 2.98-0.0273 1.46-0.0174 1.46-0.0174 2.95-0.0352 2.5 0.0873 4.4 0.487 6.8 1.1 2.31 0.198 4.62 0.362 6.94 0.5 4.12 0.247 8.04 0.584 12.1 1.5l1-2c2.85-1.2 5.08-2.08 8.19-1.81 2.1 0.94 3.31 2.09 4.81 3.81l-2.38 0.688c-2.84 1.09-2.84 1.09-3.94 3.94-0.227 0.784-0.454 1.57-0.688 2.38l-1-4c-0.707 0.0707-1.41 0.141-2.14 0.214-9.4 0.839-18.7 0.939-28.2 0.916-2.64-0.00541-5.29 4.18e-6 -7.93 0.00635-1.7-6.6e-4 -3.4-0.00194-5.1-0.00391-0.781 0.00202-1.56 0.00405-2.37 0.00613-3.14-0.0134-6.07-0.102-9.18-0.627-4.51-0.742-9-0.749-13.6-0.828-1.01-0.0208-2.03-0.0416-3.07-0.063-2.15-0.0432-4.3-0.0842-6.45-0.123-3.23-0.0589-6.45-0.124-9.68-0.191-9.16-0.182-18.3-0.336-27.5-0.303-10.5 0.0382-21-0.24-31.5-0.504-1.99-0.0484-3.98-0.0966-5.97-0.145-4.8-0.116-9.6-0.235-14.4-0.355l-1-2c7.13-1.9 13.6-2.22 21-2v1l-4 1h5v-2h23c0.803-0.0838 1.61-0.168 2.43-0.254 0.991-0.102 1.98-0.204 3-0.309 0.989-0.104 1.98-0.209 3-0.316 2.57-0.121 2.57-0.121 4.57 0.879l-1-3c2.75-1.37 4.94-1.12 8.01-1.11z" fill="#0087B2"/>
<path transform="translate(394,88)" d="m0 0c2.81-0.312 2.81-0.312 6 0 1.44 2.12 1.44 2.12 3 5 1.11 1.02 2.26 1.99 3.44 2.94 3.26 2.66 5.33 5.48 7.56 9.06 0.979 1.02 1.98 2.02 3 3 1.67 2 3.34 4 5 6 1.32 1.32 2.66 2.64 4 3.94 2 2.06 2 2.06 4 5.06 1.65 1.73 3.38 3.36 5.12 5 1.88 2 1.88 2 2.88 5h2c0.248 0.784 0.495 1.57 0.75 2.38 1.46 3.06 2.3 3.24 5.25 4.62 0.684 1.32 1.35 2.66 2 4l2.06 1.5c2.34 1.81 2.43 2.65 2.94 5.5 0.647 1.67 1.31 3.34 2 5l-5 6c-8.32-1.14-15-13.5-19.9-19.8-3.45-4.44-7.11-8.62-10.9-12.8-3.05-3.39-5.89-6.92-8.76-10.5-3.23-3.95-6.55-7.84-9.87-11.7-3.43-4.02-3.43-4.02-4.54-6.24-2.54-0.476-5-0.84-7.56-1.12-1.07-0.13-1.07-0.13-2.15-0.262-1.76-0.213-3.52-0.414-5.28-0.613l-1-3c0.831-0.0374 1.66-0.0748 2.52-0.113 1.09-0.0657 2.17-0.131 3.29-0.199 1.08-0.058 2.16-0.116 3.27-0.176 2.91-0.287 2.91-0.287 4.82-1.92 1.35-1.58 1.35-1.58 0.781-3.78-0.227-0.598-0.454-1.2-0.688-1.81z" fill="#0083AC"/>
<path transform="translate(860,301)" d="m0 0c0.392-0.516 0.784-1.03 1.19-1.56l1.81-1.44c2.61 0.41 2.61 0.41 5 1-0.933 5.12-1.87 10.2-2.83 15.4-0.322 1.74-0.641 3.48-0.957 5.22-0.457 2.51-0.924 5.03-1.39 7.54-0.138 0.768-0.275 1.54-0.417 2.33-0.966 5.11-2.46 9.72-4.41 14.5l-5-1v-5c-0.603 0.422-1.21 0.843-1.83 1.28-0.799 0.548-1.6 1.1-2.42 1.66-0.789 0.545-1.58 1.09-2.39 1.65-4.39 2.62-9.31 3.28-14.4 2.41-3.79-2.08-6.49-4.95-8-9-0.247-2.57-0.381-4.99-0.375-7.56 0.00161-0.709 0.00322-1.42 0.00488-2.15 0.201-8.7 2.87-16.5 8.37-23.3 8.89-8.21 17.8-7.39 28-2zm-23 7c-3.56 6.37-5.15 12.2-5.31 19.5-0.0374 1.12-0.0748 2.25-0.113 3.41 0.514 3.73 1.46 4.84 4.43 7.09 3.25 0.738 5.12 0.498 8.02-1.14 7.77-5.48 10.5-11.8 13.4-20.6 0.634-3.78 0.14-5.76-1.46-9.22-3.18-2.81-5.3-3.89-9.5-4.56-4.33 0.696-6.81 2.19-9.5 5.56z" fill="#000002"/>
<path transform="translate(1448,301)" d="m0 0 1.25-1.5c1.75-1.5 1.75-1.5 5.75-1.5-0.511 8.26-1.87 16.3-3.53 24.4-0.412 2.02-0.812 4.04-1.21 6.06-2.17 10.8-2.17 10.8-4.26 15.6l-5-1-1-4c-2.21 1.03-4.07 2.06-6 3.56-3.66 2.63-7.49 2.86-12 2.77-3.6-0.597-5.85-2.57-8.03-5.34-3.96-6.27-3.31-13-2-20 2.34-8.49 5.52-15.9 13-21 7.87-4.37 15.5-1.95 23 2zm-24 8c-4.07 7.15-6.29 15.9-4.19 24 0.981 3.06 0.981 3.06 3.19 5 4.45 0.712 7.35 0.173 11.1-2.25 6.35-5.17 10.1-13.7 11.2-21.8 0.107-2.1 0.117-3.93-0.273-6-3.14-3.23-5.74-4.83-10.2-5.44-5.16 0.592-7.6 2.43-10.8 6.44z" fill="#000002"/>
<path transform="translate(1166 299)" d="m0 0c3.77 2.25 5.82 4.24 7.56 8.38 1.14 9.82-0.0148 19.2-5.81 27.3-4.22 5.15-8.46 9.29-15.2 10.7-6.27 0.525-11.7 0.765-17-3-4.32-4.44-6.04-8.99-6.38-15.1 0.227-8.42 3.34-16.7 8.66-23.3 7.25-6.86 19-9.13 28.2-5zm-22.8 9.96c-4.51 6.21-6.04 14.1-5.4 21.7 0.637 2.7 1.65 4.53 3.5 6.59 4.3 2.09 7.8 2.62 12.4 1.12 6.69-4.56 9.65-9.4 11.5-17.3 0.849-4.92 1.29-8.91-0.844-13.6-1.95-2.45-3.58-3.94-6.74-4.46-6.31-0.109-10 1.01-14.4 5.93z" fill="#000002"/>
<path transform="translate(700 299)" d="m0 0c3.79 2.27 5.83 4.2 7.56 8.38 1.25 10.5-0.756 18.2-5.81 27.2-4.12 5.18-8.52 9.47-15.2 10.8-6.27 0.516-11.7 0.768-17-3-4.21-4.21-5.9-8.51-6.07-14.5 0.461-9.42 3.67-18.5 10.1-25.5 2.04-1.33 2.04-1.33 4.06-2.25 0.672-0.315 1.34-0.629 2.04-0.953 6.48-2.71 13.9-3.11 20.3-0.172zm-23.6 10.4c-3.77 6.1-5.65 13.8-4.81 20.9 1.27 3.48 2.41 5.48 5.19 7.94 3.89 1.47 6.96 1.45 10.8 0.0625 6.04-3.74 9.36-8.13 11-15 0.747-2.98 0.747-2.98 1-6 0.0761-0.639 0.152-1.28 0.23-1.94 0.282-4.03-0.144-5.9-2.11-9.56-2.48-2.58-4.54-2.97-8.06-3.12-5.89 0.376-9.03 2.71-13.2 6.69z" fill="#000002"/>
<path transform="translate(1400 299)" d="m0 0c2.81 1.89 4.22 3.58 5.44 6.75 0 4.39-0.73 6.6-3.19 10.2-6.69 6.03-18.2 6.01-26.8 6.54-2.01-0.00287-2.01-0.00287-3.01 1.21-0.532 5.81-0.532 5.81 1.88 10.9 3.73 3.62 6.65 3.27 11.7 3.23 2.82-0.192 4.93-0.97 7.47-2.17h4c-0.33 3.05-0.569 4.58-2.81 6.75-4.24 2.42-8.28 2.44-13.1 2.5-1.21 0.0258-2.41 0.0516-3.65 0.0781-5.21-0.501-7.6-2.49-11.2-6.2-2.21-3.07-2.98-4.44-3.25-8.12l-0.312-3c0.15-9.76 4.47-18.4 10.6-25.7 7.26-6.11 17.9-8.02 26.3-3.06zm-24.5 10.9c-1.45 2.03-1.45 2.03-1.1 5.82 7.28 0.333 14.4 0.585 21-3 2.26-2.75 2.26-2.75 1.88-5.5-1.09-3.11-1.95-4-4.88-5.5-7.67-1-12.1 2.72-16.9 8.18z" fill="#000002"/>
<path transform="translate(995 300)" d="m0 0c2.82 2.11 3.53 4.01 4.06 7.42-0.571 4.29-1.7 5.96-4.41 9.17-5.79 4.37-12.6 5.14-19.6 5.77-0.822 0.0819-1.64 0.164-2.49 0.248-2 0.198-4 0.383-6.01 0.564-1.09 6.69-1.09 6.69 1 13 5.51 3.57 12.4 2.21 18.5 1 1.5-0.326 3-0.656 4.5-1 0 4 0 4-1.12 5.62-6.26 4.59-14.5 4.09-21.9 3.38-4.08-1.45-6.76-4.34-9-8-2.5-7.51-2.01-16.8 1.12-24 3.79-7.12 7.7-12.4 15.4-15.3 7.15-1.89 13.4-1.35 19.9 2.17zm-24.3 8.11c-2.39 3.27-2.39 3.27-3.19 7.06 1.68 1.68 3.7 1.21 6 1.25 5.32-0.0486 10.3-0.716 15-3.25 2.26-2.75 2.26-2.75 1.88-5.5-1.09-3.11-1.95-4-4.88-5.5-6.21-0.81-10.7 1.31-14.8 5.94z" fill="#000002"/>
<path transform="translate(1197,298)" d="m0 0c-0.996 6.95-2.15 13.8-3.62 20.7-1.21 5.87-1.75 11.3-1.38 17.3 2.56 1.5 2.56 1.5 6 2 5.22-2.06 8.8-5.45 12-10 1.19-2.78 1.19-2.78 2-5.81l0.984-3.41c1.77-6.57 3.42-13.2 5.02-19.8 3.46-0.495 3.46-0.495 7-1 1.69 3.37 0.168 6.99-0.582 10.6-0.174 0.851-0.348 1.7-0.528 2.58-0.371 1.8-0.745 3.61-1.12 5.41-0.575 2.75-1.14 5.5-1.7 8.26-0.362 1.75-0.725 3.5-1.09 5.26-0.168 0.821-0.336 1.64-0.508 2.49-0.844 4-1.78 7.71-3.47 11.5l-5-1-1-5c-0.797 0.632-0.797 0.632-1.61 1.28-1.06 0.822-1.06 0.822-2.14 1.66-0.696 0.545-1.39 1.09-2.11 1.65-4.14 2.72-8.26 2.83-13.1 2.41-4.03-2.13-6.29-3.79-8-8-0.631-8.07 1.1-15.6 2.81-23.4 0.261-1.28 0.522-2.56 0.791-3.87 0.392-1.82 0.392-1.82 0.791-3.69 0.236-1.11 0.471-2.21 0.714-3.35 1.59-4.73 4.4-4.9 8.89-4.65z" fill="#000002"/>
<path transform="translate(730,298)" d="m0 0c1.41 2.82 0.653 4.46 0.00391 7.53-0.229 1.12-0.458 2.24-0.693 3.4-0.492 2.35-0.987 4.7-1.48 7.05-1.38 6.78-2.19 13.1-1.83 20 2.06 1.43 2.06 1.43 5 2 4.71-1.33 8.98-4.06 11.9-8 5-9.22 6.63-20.8 9.08-31 3.46-0.495 3.46-0.495 7-1-0.511 8.26-1.87 16.3-3.53 24.4-0.412 2.02-0.812 4.04-1.21 6.06-2.17 10.8-2.17 10.8-4.26 15.6h-5l-1-6c-0.818 0.632-0.818 0.632-1.65 1.28-5.35 3.88-9.64 6.07-16.3 5.72-3.24-0.775-4.53-1.48-6.75-3.94-4.78-7.88-1.57-17.6 0.204-26 0.425-2.02 0.832-4.04 1.24-6.06 0.264-1.27 0.529-2.54 0.801-3.85 0.241-1.16 0.482-2.32 0.73-3.51 0.257-0.874 0.513-1.75 0.778-2.65 2.46-1.23 4.28-1.07 7-1z" fill="#000002"/>
<path transform="translate(623,298)" d="m0 0h6c1.53 4.22 2.44 8.2 3.04 12.6 0.17 1.23 0.339 2.47 0.514 3.74 0.17 1.28 0.339 2.55 0.514 3.87 0.342 2.55 0.687 5.09 1.04 7.64 0.224 1.69 0.224 1.69 0.453 3.41 0.306 2.66 0.306 2.66 1.45 4.7 6.29-9.7 11.2-20.2 15.6-30.9 1.39-3.11 1.39-3.11 3.39-5.11 2.62-0.125 2.62-0.125 5 0 1 2 1 2 0.506 3.84-0.289 0.738-0.579 1.48-0.877 2.24-0.484 1.24-0.484 1.24-0.978 2.5-0.359 0.883-0.719 1.77-1.09 2.68-0.368 0.907-0.737 1.81-1.12 2.75-6.81 16.4-18.3 38.9-33.4 49-2.69 0.125-2.69 0.125-5 0 0.636-5.11 4.65-7.92 8.16-11.4 5.06-7.35 0.399-20.8-1.08-28.9-0.481-2.55-0.962-5.09-1.45-7.64-0.224-1.23-0.449-2.46-0.68-3.72-0.208-1.1-0.417-2.2-0.631-3.33-0.326-2.97-0.0942-5.14 0.67-8.01z" fill="#000002"/>
<path transform="translate(344,18)" d="m0 0c3.88 0.875 3.88 0.875 5 2 0.124 2.12 0.178 4.24 0.205 6.36 0.0099 0.663 0.0198 1.33 0.03 2.01 0.0317 2.2 0.0564 4.4 0.0811 6.61 0.0206 1.52 0.0416 3.05 0.063 4.57 0.0553 4.02 0.105 8.03 0.153 12 0.0502 4.1 0.106 8.19 0.161 12.3 0.108 8.04 0.209 16.1 0.307 24.1h-11l-1-8h-1c-0.618-9.85-1.1-19.7-1.12-29.6-0.00451-0.814-0.00902-1.63-0.0137-2.47 0.0147-5.72 0.0147-5.72 1.14-7.97h2v-9h1l1 6 3-2c0.99 0.33 1.98 0.66 3 1-0.115-2.06-0.242-4.13-0.375-6.19-0.0696-1.15-0.139-2.3-0.211-3.48-0.389-3.13-1.1-5.48-2.41-8.33z" fill="#0088B2"/>
<path transform="translate(1492 298)" d="m0 0c2.44 1.81 2.44 1.81 3.31 4.5l0.125 2.31c-0.99-0.144-1.98-0.289-3-0.438-0.636-0.0877-1.27-0.175-1.93-0.266-1.4-0.2-2.79-0.419-4.18-0.656-2.98-0.47-5.36-0.809-8.27 0.109-1.91 1.33-1.91 1.33-3.62 4.25-0.135 2.54-0.135 2.54 1 5 2.6 1.99 2.6 1.99 5.81 3.56 3.97 2.1 7.35 3.89 10.2 7.44 1.11 4.41 0.44 8.79-1.62 12.8-3.34 4.48-6.88 7.13-12.4 8.19-6.33 0.497-11.5 0.605-17-3-1-1-1-1-1.06-4.06l0.0625-2.94c2.75 0.486 5.15 1.06 7.75 2.12 4.2 1.13 8.05 1.07 12.2-0.125 1.83-1.54 2.88-2.77 4-4.88 0.22-2.37 0.22-2.37-1.94-4.56-2.37-1.99-4.5-3.49-7.12-5.06-3.45-2.11-5.92-3.89-7.94-7.5-0.599-4.72-0.486-6.95 1.5-11.2 6.57-7.22 14.9-8.61 24.1-5.56z" fill="#000002"/>
<path transform="translate(1036 298)" d="m0 0c0.763 0.495 1.53 0.99 2.31 1.5v5l-2.44-0.438c-1.18-0.186-2.35-0.371-3.56-0.562-0.746-0.119-1.49-0.237-2.26-0.359-0.78-0.108-1.56-0.217-2.36-0.328-1.1-0.16-1.1-0.16-2.23-0.324-2.62 0.0143-3.97 0.589-6.15 2.01-2.22 2.68-2.22 2.68-1.88 5.01 1.17 2.65 2.54 3.39 5.01 4.87 11.2 7.12 11.2 7.12 13.1 12.5-0.304 5.87-2.43 9.91-6.62 14-6.3 4-12.2 4.47-19.6 3.62-2.85-1.18-4.81-2.81-7-5-0.0406-1.67-0.0427-3.33 0-5 5.56 0.758 5.56 0.758 7.94 2.06 3.92 1.78 7.83 1.29 11.9 0.125 2.49-1.13 2.49-1.13 4.19-4.19 0.167-3.13 0.167-3.13 0-6l-4-2-2.22-1.08c-4.95-2.54-8.53-4.59-10.8-9.92-0.382-3.27-0.15-5.91 1-9 6.58-8.07 16-10.4 25.7-6.5z" fill="#000002"/>
<path transform="translate(1074 298)" d="m0 0c2.44 1.75 2.44 1.75 3.31 3.94l0.125 1.81c-2.61 0.966-3.69 1.13-6.31 0.0625-4.5-1.78-9.11-1.53-13.7-0.0625l-1 8c0.652 0.375 1.3 0.75 1.98 1.14 12.9 7.53 12.9 7.53 15 11.9 0.51 6.12 0.1 9.14-4 14-4.88 4.83-8.61 6.14-15.4 6.25-4.6-0.043-7.75-0.568-11.6-3.25-2-3-2-3-1.62-5.19l0.625-1.81c2.77 0.489 5.28 1.1 7.94 2.06 4.42 1.35 7.53 1.52 11.9-0.125 3.03-2.68 2.77-5.02 3.19-8.94l-2.48-1.61-6.5-4.25c-6.67-4.73-6.67-4.73-7.55-8.29 0.0758-5.4 0.704-8.74 4.53-12.9 6.6-4.88 13.9-5.43 21.6-2.75z" fill="#000002"/>
<path transform="translate(464,166)" d="m0 0c3.73 1.24 5.31 3.17 8 6l1.75 1.62c1.25 1.38 1.25 1.38 2.25 4.38l2 0.938 2 1.06c0.365 1.32 0.694 2.66 1 4 1.78 2.43 3.59 4.6 5.75 6.69 1.25 1.31 1.25 1.31 1.25 3.31 0.99 0.33 1.98 0.66 3 1l1 3c1.65 1.69 3.31 3.35 5 5l1 2-4 2 1 1c0.0406 1.67 0.0427 3.33 0 5 0.99 0.33 1.98 0.66 3 1v2h2v3h2l2 5-2-1-2 2c-1.31-1.6-2.62-3.21-3.94-4.81-0.828-1.01-1.66-2.02-2.51-3.06-1.58-1.93-3.16-3.87-4.73-5.81-4.79-5.9-9.69-11.7-14.7-17.5-2.19-2.54-4.33-5.07-6.39-7.71-1.59-2.23-1.59-2.23-3.77-3.15-0.309-0.639-0.619-1.28-0.938-1.94-1.02-2.38-1.02-2.38-4.06-4.06v-3h-2c0-2 0-2 1.43-3.54 0.623-0.543 1.25-1.09 1.89-1.64 0.615-0.55 1.23-1.1 1.86-1.67 0.602-0.378 1.2-0.755 1.82-1.14z" fill="#0086B2"/>
<path transform="translate(909 298)" d="m0 0c2.38 1.56 2.38 1.56 3.38 2.56 0.0408 2 0.0425 4 0 6-0.545-0.217-1.09-0.433-1.65-0.656-5.44-2.01-10.6-3.47-16.3-2.34-5.68 3.32-8.13 7.76-10 14-1.38 6.71-1.76 12.1 2 18 2.86 1.85 4.49 2.02 7.88 1.88 2.7-0.755 4.45-1.54 6.81-2.94 3.31-1.94 3.31-1.94 6.31-1.94-1.32 5.69-3.36 7.75-8 11-6.01 2-12.8 2.05-18.5-0.688-4.79-4.43-6.24-8.42-6.81-14.8 0.13-8.68 3.43-19 9.31-25.6 7.63-5.97 16.4-8.24 25.6-4.56z" fill="#000002"/>
<path transform="translate(950 298)" d="m0 0c2.88 1.88 2.88 1.88 3.81 5.06l0.0625 2.81c-0.99 0.33-1.98 0.66-3 1l-2.62-1.44c-4.31-2-7.7-2.28-12.4-1.56-5.4 2.35-7.12 5.56-9.24 10.8-1.97 5.73-2.39 11.2-1.76 17.2 1.33 3.23 1.33 3.23 4 5 3.4 1.11 5.7 1.5 9.09 0.191 1.36-0.69 2.7-1.42 4.02-2.18 1.96-1.04 3.73-1.56 5.89-2.01-0.258 3.78-0.524 5.52-3.25 8.25-6.17 3.93-11.6 4.43-18.8 3.75-4.63-1.78-6.57-4.75-9-9-2.76-9.11-0.535-18.4 3-27 6.91-10.7 17.8-15.1 30.1-10.9z" fill="#000002"/>
<path transform="translate(130,205)" d="m0 0c3.4 1.25 6.14 2.68 9.06 4.81 14.6 9.86 30.6 10.5 47.7 10.5 1.63 0.00932 3.26 0.0195 4.88 0.0304 4.37 0.027 8.75 0.0424 13.1 0.0554 4.59 0.0157 9.17 0.0425 13.8 0.068 8.67 0.0466 17.3 0.0834 26 0.117 9.87 0.0384 19.7 0.0877 29.6 0.138 20.3 0.103 40.6 0.192 60.9 0.273v3c-20.2 0.0234-40.4 0.041-60.5 0.0518-9.37 0.00514-18.7 0.0121-28.1 0.0236-8.17 0.01-16.3 0.0164-24.5 0.0186-4.32 0.00129-8.64 0.0043-13 0.0116-4.08 0.00687-8.16 0.00886-12.2 0.00738-1.48 2.71e-4 -2.97 0.00221-4.45 0.0061-7.8 0.0194-15.6-0.122-23.4-0.556-0.704-0.0377-1.41-0.0755-2.13-0.114-13.2-0.815-25.5-7.11-35.7-15.4l-1-3z" fill="#000002"/>
<path transform="translate(109,147)" d="m0 0c1.04 3.12 0.765 4.71 0.27 7.87-1.25 9.86-0.425 21.4 4.73 30.1l2.06 1.88c2.42 2.65 2.62 4.61 2.94 8.12-3.52 0-4.37-0.824-7-3 0.491 4.42 1.87 5.97 5 9 1.25 2.75 1.25 2.75 2 5l-2 2c-3.07 0-4.12-1.11-6.31-3.25-4.51-5.75-8.38-12.8-10.7-19.8-0.351-0.969-0.701-1.94-1.06-2.94-1.42-5.11-2.02-10.9-0.938-16.1 2.4-1.92 2.4-1.92 5-3l2 1-0.625-1.88-0.375-2.12 2-2c0.641-2.13 0.641-2.13 1.06-4.5 0.849-4.32 0.849-4.32 1.94-6.5z" fill="#0082B0"/>
<path transform="translate(348,101)" d="m0 0h1v134h-52l4-2 3-2c2.34 0.282 4.68 0.613 7 1l1-1c1.67-0.0406 3.33-0.0427 5 0l1 2 11-1v-3c7.75-1.12 7.75-1.12 10 0l1-2v2h2v-5c-0.99 0.33-1.98 0.66-3 1 0.456-6.75 0.93-12.9 4-19 1 1 1 1 1.03 2.96-0.0597 1.6-0.122 3.21-0.188 4.81-0.00311 2.52-0.00311 2.52 2.16 5.23-0.0116-1.05-0.0232-2.1-0.0352-3.18-0.00939-1.42-0.0185-2.84-0.0273-4.25-0.00838-0.688-0.0168-1.38-0.0254-2.08-0.0168-3.61 0.125-7.1 0.588-10.7 0.54-4.7 0.628-9.32 0.598-14-0.00146-0.874-0.00292-1.75-0.00443-2.65-0.00378-1.88-0.00987-3.76-0.0181-5.64-0.0128-2.98-0.0193-5.95-0.0241-8.93-0.0114-6.31-0.0306-12.6-0.051-18.9-0.0236-7.33-0.044-14.7-0.0559-22-0.00649-2.93-0.019-5.87-0.0317-8.8-0.00363-1.79-0.00698-3.58-0.01-5.37-0.00517-0.817-0.0103-1.63-0.0157-2.47-3.07e-4 -3.26 0.0748-5.87 1.11-8.98z" fill="#0088B2"/>
<path transform="translate(799,298)" d="m0 0v5c-0.797 0.124-1.59 0.248-2.41 0.375-7.41 1.38-7.41 1.38-13.1 6-5.47 8.81-7.03 19.5-8.79 29.6-0.711 3.02-0.711 3.02-2.71 5.02-2.56 0.188-2.56 0.188-5 0l-1-1c0.514-8.15 2.34-16.1 4.01-24.1 0.492-2.36 0.977-4.72 1.46-7.08 0.311-1.5 0.622-3 0.934-4.51 0.145-0.705 0.29-1.41 0.439-2.14 1.04-4.95 1.04-4.95 2.15-7.18l5 1v4c0.485-0.349 0.969-0.699 1.47-1.06 5.63-3.82 10.7-6.22 17.5-3.94z" fill="#000002"/>
<path transform="translate(1265,298)" d="m0 0c-0.875 4.88-0.875 4.88-2 6-1.56 0.191-3.12 0.378-4.69 0.562-4.09 0.794-6.16 1.71-8.75 5-4.88 7.69-6.32 16.4-8.12 25.2-0.158 0.757-0.317 1.51-0.48 2.29-0.138 0.681-0.276 1.36-0.418 2.06-0.547 1.85-0.547 1.85-2.55 4.85-2.62 0.188-2.62 0.188-5 0-1.52-4.92-0.455-9.05 0.582-13.9 0.174-0.854 0.348-1.71 0.528-2.59 0.37-1.8 0.744-3.6 1.12-5.39 0.579-2.76 1.14-5.52 1.7-8.28 0.362-1.75 0.724-3.5 1.09-5.24 0.168-0.827 0.336-1.65 0.508-2.51 1.24-5.81 1.24-5.81 3.47-8.04 2.06 0.188 2.06 0.188 4 1l1 3c0.531-0.277 1.06-0.554 1.61-0.84 0.706-0.362 1.41-0.724 2.14-1.1 0.696-0.36 1.39-0.719 2.11-1.09 4.45-2.02 7.34-1.95 12.1-0.973z" fill="#000002"/>
<path transform="translate(10,9)" d="m0 0 2 1c-1.98 2.31-3.96 4.62-6 7 0.722-0.804 1.44-1.61 2.19-2.44 2.84-2.59 4.08-3.24 7.81-3.56l-1 2c0.279 1.68 0.608 3.35 1 5h-2l-1 2c-2.06 0.625-2.06 0.625-4 1v3l-0.5 1.88c-0.603 2.2-0.603 2.2-0.5 4.81v2.31l-1 1 2.25 2.12c2.68 2.8 4.62 5.65 6.75 8.88 2.25 2.46 4.21 4.14 7 6 0.688 2.62 0.688 2.62 1 5h4l1 4c-8.6-0.273-13.8-2.94-20-8.93-1.78-1.96-3.42-3.96-5.02-6.07l-2.44-3.12c-2.87-5.48-2.43-11.9-1.56-17.9 2.26-5.99 5.35-10.6 10-15z" fill="#0087B2"/>
<path transform="translate(1303 298)" d="m0 0 3.38 0.125c-1.1 5.61-2.2 11.2-3.31 16.8-0.376 1.91-0.75 3.81-1.12 5.72-0.537 2.74-1.08 5.49-1.62 8.23-0.165 0.849-0.329 1.7-0.499 2.57-2.05 10.3-2.05 10.3-4.45 12.7-1.67 0.0406-3.33 0.0427-5 0-0.152-5.75 0.343-11 1.46-16.6 0.151-0.783 0.301-1.57 0.456-2.37 0.317-1.64 0.639-3.28 0.963-4.92 0.496-2.51 0.976-5.03 1.46-7.54 0.312-1.6 0.624-3.2 0.938-4.79 0.143-0.752 0.286-1.5 0.433-2.28 1.5-7.45 1.5-7.45 6.92-7.64z" fill="#000002"/>
<path transform="translate(388 86.9)" d="m0 0c0.798-0.0272 1.6-0.0543 2.42-0.0823 1.09-0.0492 1.09-0.0492 2.19-0.0995 2.51 0.385 3.36 1.39 4.96 3.3-0.99 0.33-1.98 0.66-3 1l2 2-1.94 0.375-2.06 0.625-1 2c-2.5 0.414-2.5 0.414-5.56 0.625-1.52 0.112-1.52 0.112-3.07 0.227-0.782 0.049-1.56 0.098-2.37 0.148v2c-3.43 0.775-6.57 1.12-10.1 1.1-0.931-0.00322-1.86-0.00645-2.82-0.00977-0.96-0.00838-1.92-0.0168-2.91-0.0254-1.47-0.00677-1.47-0.00677-2.97-0.0137-2.41-0.0117-4.81-0.0282-7.22-0.0488v-1l13-1c-2.68-2.68-4.95-2.83-8.62-3.62-1.78-0.391-1.78-0.391-3.6-0.789-0.915-0.193-1.83-0.387-2.77-0.586l1-2h15v-2h-18v-1c4.82-0.144 9.64-0.286 14.5-0.427 1.64-0.048 3.27-0.0965 4.91-0.146 2.37-0.0707 4.73-0.14 7.1-0.208 0.719-0.0219 1.44-0.0437 2.18-0.0663 1.4-0.0401 2.8-0.0742 4.2-0.102 1.53-0.0359 3.05-0.0947 4.58-0.169z" fill="#006F9B"/>
<path transform="translate(464,166)" d="m0 0c3.73 1.24 5.31 3.17 8 6l1.75 1.62c1.25 1.38 1.25 1.38 2.25 4.38 2 1.21 2 1.21 4 2-0.99 0.33-1.98 0.66-3 1 0.776 3.07 0.776 3.07 3 5-0.375 2.12-0.375 2.12-1 4l-1-2-2-0.438-2-0.562-1-3h-2l-1 2 4 2v3c-3.82-1.5-5.54-3.8-8-7l-2-1c-0.309-0.639-0.619-1.28-0.938-1.94-1.02-2.38-1.02-2.38-4.06-4.06v-3h-2c0-2 0-2 1.43-3.54 0.623-0.543 1.25-1.09 1.89-1.64 0.615-0.55 1.23-1.1 1.86-1.67 0.602-0.378 1.2-0.755 1.82-1.14z" fill="#0079A8"/>
<path transform="translate(109,147)" d="m0 0c1.04 3.12 0.765 4.71 0.27 7.87-1.25 9.86-0.425 21.4 4.73 30.1l2.06 1.88c2.42 2.65 2.62 4.61 2.94 8.12h-3c-0.433-0.474-0.866-0.949-1.31-1.44-2.36-2.18-4.56-2.22-7.69-2.56v-2l-2-3c-2.08-4.06-2.15-6.59-1-11l2-3h-2l-2-6h2l-0.125-2.88c0.125-3.12 0.125-3.12 2.12-5.12 0.641-2.13 0.641-2.13 1.06-4.5 0.849-4.32 0.849-4.32 1.94-6.5z" fill="#0083AC"/>
<path transform="translate(507,227)" d="m0 0c0.99 0.33 1.98 0.66 3 1v2l1.88 0.125 2.12 0.875c0.667 2 1.33 4 2 6 2.03 0.969 2.03 0.969 4 1v4c1.98 0.66 3.96 1.32 6 2v3c2.31 2.73 2.31 2.73 5 5h2c1.03 2.57 2.04 5.13 2.94 7.75 0.351 0.742 0.701 1.48 1.06 2.25l3 1-2 2c-5.08-1.46-7.71-4.44-11.1-8.25-0.561-0.617-1.12-1.23-1.7-1.87-3.92-4.36-7.7-8.81-11.4-13.4-0.457-0.562-0.914-1.12-1.39-1.7-3.03-3.87-5.43-7.76-5.43-12.8z" fill="#0087B2"/>
<path transform="translate(236 88.9)" d="m0 0c1.18 7.55e-5 2.36 1.51e-4 3.58 2.29e-4 1.28 0.00516 2.56 0.0103 3.88 0.0156 1.31 0.00141 2.61 0.00283 3.96 0.00429 3.48 0.00382 6.95 0.0136 10.4 0.0247 3.55 0.0102 7.09 0.0148 10.6 0.0198 6.96 0.0107 13.9 0.0278 20.9 0.0488l1 4c-7.79 0.0694-15.6 0.123-23.4 0.155-3.62 0.0157-7.23 0.0369-10.8 0.0709-3.49 0.0325-6.98 0.0505-10.5 0.0583-1.98 0.00826-3.96 0.0317-5.95 0.0553-1.2 2.27e-4 -2.4 4.53e-4 -3.64 6.87e-4 -1.06 0.00666-2.12 0.0133-3.22 0.0202-1.25-0.179-1.25-0.179-2.52-0.361l-2-3c2.66-1.33 4.67-1.12 7.64-1.11z" fill="#0083B1"/>
<path transform="translate(1090 333)" d="m0 0c2.5 0.125 2.5 0.125 3.5 1.12 0.668 7.16-2.81 11.5-7 17-3.5 3.8-6.63 6.67-12 7 0.616-3.6 2.12-5.74 4.31-8.62 3.11-4.3 5.17-8.46 6.96-13.4 1.06-2.81 1.13-2.9 4.23-3.06z" fill="#000002"/>
<path transform="translate(355 88.9)" d="m0 0c1.2 0.00483 1.2 0.00483 2.43 0.00977 1.25 0.0126 1.25 0.0126 2.53 0.0254 0.845 0.00451 1.69 0.00902 2.56 0.0137 2.08 0.0118 4.17 0.0297 6.25 0.0488v2l-15 1c7.05 1.86 13.7 3.39 21 4v3h-25l-2-4h2v-3l-2-2c2.77-0.922 4.38-1.12 7.23-1.1z" fill="#0088B2"/>
<path transform="translate(571,262)" d="m0 0c2.73-0.0813 5.46-0.141 8.19-0.188 1.15-0.0377 1.15-0.0377 2.33-0.0762 4.77-0.0614 7.5 0.394 11.5 3.26 2.69 0.707 2.69 0.707 5 1v1h-32l-1-3c1.98-0.33 3.96-0.66 6-1v-1z" fill="#0082B1"/>
<path transform="translate(485,187)" d="m0 0c3.93 3.82 7.51 7.84 11.1 12 6.15 7.16 12.5 14.1 18.9 21l-1 2c-4.69-3.61-4.69-3.61-6-5v-3l-5 1-2-3h-2c-2.43-3.37-3-4.73-3-9-1.62-1.71-3.29-3.38-5-5l-1-3-2-1v-2c-0.99-0.33-1.98-0.66-3-1l-1-3 1-1z" fill="#00607E"/>
<path transform="translate(321,23)" d="m0 0c6.75-0.125 6.75-0.125 9 1 1.7 0.226 3.41 0.409 5.12 0.562 0.91 0.0838 1.82 0.168 2.76 0.254 0.699 0.0606 1.4 0.121 2.12 0.184v1h-5v2c-3.87 0.0292-7.75 0.0469-11.6 0.0625-1.64 0.0126-1.64 0.0126-3.32 0.0254-1.6 0.00483-1.6 0.00483-3.22 0.00977-1.46 0.00786-1.46 0.00786-2.95 0.0159-3.03-0.119-5.9-0.555-8.88-1.11 3.63-2.42 5.38-2.21 9.69-2.12 1.18 0.018 2.36 0.0361 3.57 0.0547 1.36 0.0348 1.36 0.0348 2.74 0.0703v-2z" fill="#0088B2"/>
<path transform="translate(235 88.9)" d="m0 0c0.896 0.00322 1.79 0.00645 2.71 0.00977 1.41 0.0126 1.41 0.0126 2.84 0.0254 0.945 0.00451 1.89 0.00902 2.86 0.0137 2.34 0.0118 4.67 0.0283 7.01 0.0488v1l12 1v1c-7.33 0.962-14.7 1.16-22.1 1.25-1.41 0.0319-1.41 0.0319-2.85 0.0645-1.33 0.00677-1.33 0.00677-2.68 0.0137-0.799 0.00935-1.6 0.0187-2.42 0.0283-0.653-0.118-1.31-0.235-1.98-0.356l-2-3c2.4-1.2 3.89-1.11 6.57-1.1z" fill="#007FB0"/>
<path transform="translate(1576 241)" d="m0 0c3.47 1.79 5.47 3.49 7.62 6.75-3.05-0.922-5.65-1.76-8.3-3.55-4.89-2.63-10.3-1.96-15.7-1.45-3.45 1.14-3.45 1.14-6 3-1.42 0.835-1.42 0.835-2.88 1.69-0.701 0.433-1.4 0.866-2.12 1.31 1.39-3.38 2.8-4.84 5.94-6.69 0.69-0.416 1.38-0.833 2.09-1.26 6.51-3.47 12.8-2.91 19.3 0.199z" fill="#000002"/>
<path transform="translate(102,163)" d="m0 0 2 1v2h-2l0.562 2.38c0.438 2.62 0.438 2.62-0.562 4.62-0.0695 1.54-0.0845 3.08-0.0625 4.62 0.00902 0.817 0.018 1.63 0.0273 2.48 0.0116 0.626 0.0232 1.25 0.0352 1.9-0.99-0.33-1.98-0.66-3-1-1.06-3.18-1.23-5.66-1.31-9-0.0374-1.05-0.0748-2.1-0.113-3.19 0.426-2.81 0.426-2.81 2.45-4.69 0.654-0.371 1.31-0.742 1.98-1.12z" fill="#0083B1"/>
<path transform="translate(1309,281)" d="m0 0 1 2c-1 2.62-1 2.62-3 5-3.69 0.312-3.69 0.312-7 0 0.25-2.88 0.25-2.88 1-6 2.78-2.2 4.75-2.35 8-1z" fill="#000002"/>
<path transform="translate(336,42)" d="m0 0h3v19h-3v-19z" fill="#006A9E"/>
<path transform="translate(102,167)" d="m0 0 2 1v4h2c-0.156 0.592-0.312 1.18-0.473 1.79-1.51 6.08-1.51 6.08-0.527 12.2-0.99 0.33-1.98 0.66-3 1l-2-2c0.375-1.85 0.375-1.85 1-4 0.0423-1.48 0.041-2.96 0-4.44-0.044-3.33 0.162-6.31 1-9.56z" fill="#007EAF"/>
<path transform="translate(538,253)" d="m0 0c0.99 0.33 1.98 0.66 3 1 0.268 0.619 0.536 1.24 0.812 1.88 1.69 3.03 4.12 3.62 7.19 5.12 1.88 2.19 1.88 2.19 3 4l-2 1c-5.12-1.71-8.07-3.27-11-8-0.75-2.81-0.75-2.81-1-5z" fill="#0088B2"/>
<path transform="translate(63,23)" d="m0 0c1.75 0.0875 3.5 0.196 5.25 0.312 0.975 0.058 1.95 0.116 2.95 0.176 2.8 0.512 2.8 0.512 6.8 3.51l-16 1 1-5z" fill="#0088B2"/>
<path transform="translate(510,232)" d="m0 0c5.57 5.14 5.57 5.14 6 9h2c2.62 2.38 2.62 2.38 5 5v2c-4.96-0.68-7.17-4.01-10.3-7.63-2-2.77-2.71-4.94-2.71-8.37z" fill="#0080B0"/>
<path transform="translate(485,187)" d="m0 0c3.53 3.43 6.71 6.97 9.81 10.8 0.79 0.976 1.58 1.95 2.39 2.96 0.888 1.1 0.888 1.1 1.79 2.23-3 0-3 0-5.62-2.31-2.38-2.69-2.38-2.69-3.38-5.69l-2-1v-2c-0.99-0.33-1.98-0.66-3-1l-1-3 1-1z" fill="#00050C"/>
<path transform="translate(515,222)" d="m0 0c4.11 3.36 7.95 6.6 11 11v2c-3.17-0.942-4.68-1.53-6.56-4.31-0.474-0.887-0.949-1.77-1.44-2.69-1.31-1.68-2.64-3.36-4-5l1-1z" fill="#000002"/>
<path transform="translate(352,89)" d="m0 0h17v2c-2.08 0.25-4.17 0.474-6.25 0.688-1.16 0.128-2.32 0.255-3.52 0.387-3.23-0.0742-3.23-0.0742-7.23-3.07z" fill="#0083B1"/>
<path transform="translate(25)" d="m0 0c2.12-0.0269 4.25-0.0464 6.38-0.0625 1.18-0.0116 2.37-0.0232 3.59-0.0352 3.04 0.0977 3.04 0.0977 5.04 1.1v3c-0.846-0.351-1.69-0.701-2.56-1.06-3.89-1.06-6.52-0.721-10.4 0.0625l-2-3z" fill="#0087B2"/>
<path transform="translate(524,235)" d="m0 0c3.39 3.13 5.61 5.57 7 10h-3c-1.62-1.94-1.62-1.94-3-4l-1-1c-0.683-1.33-1.35-2.66-2-4l2-1z" fill="#0089B3"/>
<path transform="translate(506,211)" d="m0 0 9 9-1 2c-4.69-3.61-4.69-3.61-6-5v-3h-3l1-3z" fill="#000002"/>
</svg>
