<?xml version="1.0" encoding="UTF-8"?>
<svg width="198px" height="100px" viewBox="0 0 198 100" version="1.1" xmlns="http://www.w3.org/2000/svg" xmlns:xlink="http://www.w3.org/1999/xlink">
    <title>PxD-logo</title>
    <g id="Page-1" stroke="none" stroke-width="1" fill="none" fill-rule="evenodd">
        <g id="PxD-logo" transform="translate(0.000000, -0.000000)">
            <path d="M68.2443456,56.4775917 L66.6833293,56.4775917 L66.6833293,61.6390517 L68.0903455,61.6390517 C69.806347,61.6390517 71.2714826,60.6795705 71.2714826,58.9142034 C71.2714826,57.5141974 70.1924966,56.4775917 68.2443456,56.4775917 M67.9173006,63.0978815 L66.6833293,63.0978815 L66.6833293,68.1256809 L64.8704621,68.1256809 L64.8704621,55.0766053 C66.2009707,55.0187619 67.5505241,54.9808532 68.5342862,54.9808532 C71.3489752,54.9808532 73.142141,56.3818396 73.142141,58.646882 C73.142141,61.5249989 70.8281986,63.0978815 67.9173006,63.0978815" id="Fill-63" fill="#00594A"></path>
            <path d="M78.7726355,56.4578203 L77.3656193,56.4578203 L77.3656193,61.0637225 L80.2187263,61.0637225 C81.067533,60.6993418 81.7616829,59.7597953 81.7616829,58.7424707 C81.7616829,57.2836409 80.7204581,56.4578203 78.7726355,56.4578203 L78.7726355,56.4578203 Z M83.1496543,68.1255175 C80.6426371,63.4241901 80.2187263,62.7140563 79.5826959,62.5225522 L77.3656193,62.5225522 L77.3656193,68.1255175 L75.5527521,68.1255175 L75.5527521,55.0764419 C76.8060964,55.0385332 78.1943962,54.9806898 79.5633227,54.9806898 C82.0696832,54.9806898 83.6316845,56.3623951 83.6316845,58.3967175 C83.6316845,60.4686219 82.1855937,61.5251623 81.3371153,61.8892162 C82.1084295,62.2918323 82.5326686,62.9248415 85.3086114,68.1255175 L83.1496543,68.1255175 Z" id="Fill-64" fill="#00594A"></path>
            <polygon id="Fill-65" fill="#00594A" points="87.2769564 68.1255501 87.2769564 55.0764745 94.9506945 55.0764745 94.9506945 56.6310564 89.0898237 56.6310564 89.0898237 60.6418579 93.9288428 60.6418579 93.9288428 62.2157209 89.0898237 62.2157209 89.0898237 66.5712951 95.2015604 66.5712951 95.2015604 68.1255501"></polygon>
            <path d="M107.349446,67.2619517 C106.462549,67.8570523 105.055533,68.3943095 103.184546,68.3943095 C99.6566628,68.3943095 96.6869885,66.0913584 96.6869885,61.831863 C96.6869885,57.5141974 99.8300361,54.8471925 103.782816,54.8471925 C105.151742,54.8471925 106.346639,55.1341218 107.330401,55.5563459 L107.11861,57.1681175 C106.115474,56.7658282 104.804667,56.4197483 103.474487,56.4197483 C100.736306,56.4197483 98.5576469,58.5694307 98.5576469,61.620751 C98.5576469,64.9011572 100.755679,66.782211 103.551651,66.782211 C105.055533,66.782211 106.501624,66.2449538 107.445655,65.5737091 L107.349446,67.2619517 Z" id="Fill-66" fill="#00594A"></path>
            <polygon id="Fill-67" fill="#00594A" points="109.722591 68.1257462 111.535458 68.1257462 111.535458 55.0766706 109.722591 55.0766706"></polygon>
            <path d="M117.744061,68.3562701 C116.491045,68.3562701 115.276118,68.0876415 114.293013,67.472933 L114.620715,65.8229259 C115.642895,66.4559351 116.857164,66.8203158 118.034001,66.8203158 C119.595018,66.8203158 120.674989,65.9000504 120.674989,64.7480847 C120.674989,63.4817394 119.807794,62.7529781 118.245793,62.1961129 C115.739104,61.2944751 114.678834,60.2575425 114.678834,58.4346589 C114.678834,56.3045844 116.683791,54.8470618 119.112987,54.8470618 C120.251078,54.8470618 121.445974,55.173207 122.256035,55.5562152 L122.005826,57.1300781 C121.234183,56.7464163 119.961794,56.3624278 118.882151,56.3624278 C117.512896,56.3624278 116.529791,57.110797 116.529791,58.1670107 C116.529791,59.4712646 117.436061,59.9889139 119.036151,60.565387 C121.42693,61.4477437 122.525946,62.6379449 122.525946,64.4415474 C122.525946,66.6288117 120.501615,68.3562701 117.744061,68.3562701" id="Fill-68" fill="#00594A"></path>
            <polygon id="Fill-69" fill="#00594A" points="125.245411 68.1257462 127.058278 68.1257462 127.058278 55.0766706 125.245411 55.0766706"></polygon>
            <path d="M136.255599,56.4016436 C133.691448,56.4016436 131.7827,58.45394 131.7827,61.3519917 C131.7827,64.8830526 133.864821,66.8016882 136.467719,66.8016882 C139.032527,66.8016882 140.921574,64.7480847 140.921574,61.8513402 C140.921574,58.3202793 138.858826,56.4016436 136.255599,56.4016436 M136.101599,68.3562701 C132.534641,68.3562701 129.892668,65.7467818 129.892668,61.6967644 C129.892668,57.6676621 132.727716,54.8470618 136.621719,54.8470618 C140.189006,54.8470618 142.811277,57.4568769 142.811277,61.5052603 C142.811277,65.5356697 139.996588,68.3562701 136.101599,68.3562701" id="Fill-70" fill="#00594A"></path>
            <path d="M155.268312,68.1255501 L147.864484,58.5117834 C147.498365,58.0124349 147.15129,57.2258302 147.15129,57.2258302 C147.15129,57.2258302 147.324663,58.1277948 147.324663,58.9140727 L147.4212,68.1255501 L145.685497,68.1255501 L145.685497,55.0764745 L147.440245,55.0764745 L154.767237,64.5565806 C155.133356,65.0559291 155.500133,65.8804425 155.500133,65.8804425 C155.500133,65.8804425 155.326431,64.9405691 155.326431,64.057232 L155.248939,55.0764745 L156.965268,55.0764745 L156.965268,68.1255501 L155.268312,68.1255501 Z" id="Fill-71" fill="#00594A"></path>
            <path d="M68.6881221,73.7826005 L66.6834935,73.7826005 L66.6834935,83.9721867 L69.0542419,83.9721867 C72.1394983,83.9721867 74.4721571,82.2247936 74.4721571,78.8486354 C74.4721571,75.5087517 72.1972894,73.7826005 68.6881221,73.7826005 M68.7265401,85.5068339 C67.5313152,85.5068339 66.0271049,85.4872259 64.8702979,85.4489905 L64.8702979,72.4002417 C66.1623886,72.3620062 67.8974349,72.2858621 69.2085704,72.2858621 C73.257559,72.2858621 76.3424871,74.5692052 76.3424871,78.46432 C76.3424871,83.0702221 73.16135,85.5068339 68.7265401,85.5068339" id="Fill-72" fill="#00594A"></path>
            <polygon id="Fill-73" fill="#00594A" points="79.1782896 85.4490885 79.1782896 72.4000129 86.8520277 72.4000129 86.8520277 73.9545947 80.9911568 73.9545947 80.9911568 77.9653963 85.830176 77.9653963 85.830176 79.5392592 80.9911568 79.5392592 80.9911568 83.8948335 87.1032219 83.8948335 87.1032219 85.4490885"></polygon>
            <path d="M94.0839594,85.5646119 L92.5032416,85.5646119 L87.7791479,72.4001763 L89.803478,72.4001763 L92.8880777,81.2469463 C93.1773616,82.0910676 93.3901379,83.4149295 93.3901379,83.4149295 C93.3901379,83.4149295 93.582556,82.0910676 93.891213,81.2469463 L96.9570962,72.4001763 L98.7880232,72.4001763 L94.0839594,85.5646119 Z" id="Fill-74" fill="#00594A"></path>
            <polygon id="Fill-75" fill="#00594A" points="100.698282 85.4490885 100.698282 72.4000129 108.37202 72.4000129 108.37202 73.9545947 102.511149 73.9545947 102.511149 77.9653963 107.350168 77.9653963 107.350168 79.5392592 102.511149 79.5392592 102.511149 83.8948335 108.623214 83.8948335 108.623214 85.4490885"></polygon>
            <polygon id="Fill-76" fill="#00594A" points="111.111482 85.4490885 111.111482 72.4000129 112.924349 72.4000129 112.924349 83.8186894 118.4191 83.8186894 118.4191 85.4490885"></polygon>
            <path d="M125.785298,73.725182 C123.221146,73.725182 121.312398,75.7774784 121.312398,78.67553 C121.312398,82.2065909 123.394519,84.1252266 125.997417,84.1252266 C128.561897,84.1252266 130.451272,82.071623 130.451272,79.1748786 C130.451272,75.6438177 128.388196,73.725182 125.785298,73.725182 M125.630969,85.6798085 C122.064339,85.6798085 119.422367,83.0703201 119.422367,79.0203028 C119.422367,74.9912005 122.257086,72.1706002 126.151417,72.1706002 C129.718376,72.1706002 132.340975,74.7804153 132.340975,78.8287987 C132.340975,82.8592081 129.526286,85.6798085 125.630969,85.6798085" id="Fill-77" fill="#00594A"></path>
            <path d="M138.570133,73.80113 L137.008788,73.80113 L137.008788,78.9625901 L138.415804,78.9625901 C140.132134,78.9625901 141.59727,78.0031088 141.59727,76.239049 C141.59727,74.8377358 140.517955,73.80113 138.570133,73.80113 M138.242759,80.4214199 L137.008788,80.4214199 L137.008788,85.4492192 L135.196249,85.4492192 L135.196249,72.4001436 C136.526758,72.3423003 137.876311,72.3043916 138.859745,72.3043916 C141.674762,72.3043916 143.467928,73.705378 143.467928,75.9704204 C143.467928,78.8485373 141.153986,80.4214199 138.242759,80.4214199" id="Fill-78" fill="#00594A"></path>
            <path d="M158.661897,85.4490885 L158.217956,76.6036257 C158.19924,76.3346703 158.237329,74.8954485 158.237329,74.8954485 C158.237329,74.8954485 157.909956,76.0660417 157.678463,76.583691 L153.551982,85.4294806 L152.472339,85.4294806 L148.327141,76.6415344 C148.057231,76.0843424 147.748574,74.8183239 147.748574,74.8183239 C147.748574,74.8183239 147.806365,76.4108144 147.768275,76.699051 L147.30529,85.4490885 L145.512124,85.4490885 L146.495229,72.4000129 L148.26935,72.4000129 L152.492041,81.207567 C152.839116,81.9379623 153.128071,83.0886209 153.128071,83.0886209 C153.128071,83.0886209 153.417026,81.9562631 153.76443,81.2275018 L157.909956,72.4000129 L159.683748,72.4000129 L160.513182,85.4490885 L158.661897,85.4490885 Z" id="Fill-79" fill="#00594A"></path>
            <polygon id="Fill-80" fill="#00594A" points="164.004782 85.4490885 164.004782 72.4000129 171.67852 72.4000129 171.67852 73.9545947 165.817649 73.9545947 165.817649 77.9653963 170.656668 77.9653963 170.656668 79.5392592 165.817649 79.5392592 165.817649 83.8948335 171.929386 83.8948335 171.929386 85.4490885"></polygon>
            <path d="M184.019579,85.4490885 L176.615751,75.8353218 C176.249632,75.3359732 175.902557,74.5493685 175.902557,74.5493685 C175.902557,74.5493685 176.07593,75.4513332 176.07593,76.2389183 L176.172796,85.4490885 L174.436764,85.4490885 L174.436764,72.4000129 L176.191512,72.4000129 L183.518504,81.8801189 C183.884623,82.3784871 184.2514,83.2039808 184.2514,83.2039808 C184.2514,83.2039808 184.077698,82.2641075 184.077698,81.3807704 L184.000206,72.4000129 L185.716535,72.4000129 L185.716535,85.4490885 L184.019579,85.4490885 Z" id="Fill-81" fill="#00594A"></path>
            <polygon id="Fill-82" fill="#00594A" points="193.77731 73.9361306 193.77731 85.4489251 191.965099 85.4489251 191.965099 73.9361306 187.723364 73.9361306 187.723364 72.4001763 198 72.4001763 198 73.9361306"></polygon>
            <path d="M74.6495692,17.8371645 L71.5337754,17.8371645 L71.5337754,29.6496334 L74.5011511,29.6496334 C78.5067964,29.6496334 81.6222619,27.2875318 81.6222619,23.3986262 C81.6222619,20.2966521 79.1989762,17.8371645 74.6495692,17.8371645 M74.6988229,34.668936 L71.5337754,34.668936 L71.5337754,46.531732 L64.5115006,46.531732 L64.5115006,13.0623074 C68.4678921,12.9152479 72.4242836,12.7668813 75.5890028,12.7668813 C83.9962938,12.7668813 88.9417011,16.6061134 88.9417011,22.6594074 C88.9417011,30.1908122 82.7600241,34.668936 74.6988229,34.668936" id="Fill-83" fill="#00594A"></path>
            <polygon id="Fill-84" fill="#00594A" points="111.023613 46.5316013 105.237608 38.0155517 99.5996926 46.5316013 92.1817458 46.5316013 102.171396 33.881547 92.9727614 21.4295328 101.083545 21.4295328 106.177042 29.30473 111.370031 21.4295328 118.541053 21.4295328 109.144417 33.3906952 118.985978 46.5316013"></polygon>
            <path d="M134.943446,18.0340607 L130.838636,18.0340607 L130.838636,41.2658597 L135.586372,41.2658597 C142.510139,41.2658597 147.455218,37.0315278 147.455218,29.501757 C147.455218,22.1683922 142.608975,18.0340607 134.943446,18.0340607 M134.943446,46.7783017 C131.580727,46.7783017 127.426335,46.6783013 123.717526,46.5315686 L123.717526,13.062144 C127.624335,12.8154109 132.866579,12.7183516 136.278552,12.7183516 C147.010292,12.7183516 154.972329,18.5249125 154.972329,28.5658053 C154.972329,40.329908 146.663874,46.7783017 134.943446,46.7783017" id="Fill-85" fill="#00594A"></path>
            <path d="M39.0422423,10.8805333 C36.9693151,15.3223824 34.8977014,19.7563884 32.8168936,24.2132702 C25.5096036,22.5482304 18.2220151,20.8877658 10.896337,19.2181508 C10.9843371,19.0825293 11.0509939,18.9766465 11.1222476,18.8727245 C13.2769361,15.6857827 15.6424307,12.6586455 18.159627,9.74784871 C18.4416869,9.42203031 18.4433287,9.43575586 18.7204633,9.10699628 L18.7221051,9.10699628 C18.7250603,9.1024211 18.7296573,9.09784592 18.733926,9.09327073 C19.173598,8.65143877 23.357542,4.17952416 23.718408,3.84194102 C24.9185583,2.71219761 26.1233056,1.58997057 27.3280529,0.466436338 C27.441665,0.359246336 27.559874,0.256631516 27.6856353,0.167742246 C28.0041431,-0.0587293137 28.2481135,-0.0541541306 28.5705615,0.171010234 C28.6375466,0.217415662 28.7025616,0.270357065 28.7629796,0.324605664 C29.2906517,0.807287474 29.8163536,1.28964248 30.3407422,1.77559228 C30.3906526,1.82069051 32.1424452,3.48573034 32.2002363,3.55370448 C34.5913429,5.88247265 36.8737628,8.31647002 39.0422423,10.8805333" id="Fill-86" fill="#6ABEB4"></path>
            <path d="M39.6040309,69.4502944 C30.4402019,63.6934069 21.3256268,57.9662582 12.1860963,52.2237499 C18.901356,44.2135848 25.5998693,36.2253152 32.2924722,28.2419477 C32.3230096,28.2556732 32.3315469,28.2582876 32.3387708,28.2631896 C32.3453379,28.2677648 32.3571589,28.2736471 32.3578156,28.2805099 C32.7544726,30.5197352 33.1521148,32.7583069 33.546145,34.996225 C35.5619378,46.4606533 37.5777306,57.9247547 39.6040309,69.4502944" id="Fill-87" fill="#6ABEB4"></path>
            <path d="M41.7704418,68.9115993 C39.4049471,55.3445476 37.0401092,41.7788031 34.6746146,28.2114246 C34.6893908,28.1990063 34.7044952,28.1869147 34.7202565,28.1741696 C34.7970923,28.228745 34.8742566,28.2816864 34.9501074,28.3372422 C38.8421407,31.1950976 42.7341739,34.0539334 46.6252221,36.913096 C49.498359,39.0229089 52.3685406,41.1350095 55.2443043,43.2409009 C55.4199761,43.3693328 55.5076479,43.5088759 55.5394986,43.7281579 C55.8350213,45.7389508 55.9854095,47.7582405 55.995917,49.7883146 C55.9992005,50.2455061 55.9788423,50.7023708 55.9778572,51.1595623 C55.9778572,51.3023734 55.9033199,51.3964914 55.8235287,51.4977991 C54.9868713,52.5383264 54.1502138,53.5814681 53.3142131,54.6242831 C49.550568,59.3141725 45.7862662,64.0047155 42.0226211,68.6936245 C41.9605613,68.7717294 41.8955463,68.8465663 41.8315164,68.9230372 C41.8111582,68.9187888 41.7908,68.9155208 41.7704418,68.9115993" id="Fill-88" fill="#6ABEB4"></path>
            <path d="M10.9996386,50.2783167 C10.9539968,50.1766823 10.9237878,50.1136101 10.8971907,50.0485772 C8.5871887,44.214892 6.27882847,38.3798996 3.96455778,32.5478485 C3.90052787,32.3867367 3.91990102,32.2566708 3.98163242,32.1053629 C5.43527549,28.5243018 7.20414271,25.1020649 9.22781613,21.8076063 C9.37098044,21.5752524 9.51578654,21.343552 9.67438369,21.088649 C16.8660915,22.74846 24.0499187,24.4059835 31.291537,26.0769057 C24.5138893,34.1602737 17.7677639,42.2070402 10.9996386,50.2783167" id="Fill-89" fill="#6ABEB4"></path>
            <path d="M47.7709963,23.0901935 C49.6403412,26.2473966 51.2772083,29.5304172 52.6110005,32.9601705 C53.5432103,35.3539716 54.3201065,37.7941782 54.8838981,40.2863457 C54.8612413,40.3105288 54.857301,40.3190256 54.8504055,40.3213132 C54.8415398,40.3236008 54.8284055,40.3245812 54.8234801,40.3213132 C48.4116237,35.6157375 42.0023942,30.9101617 35.5911945,26.2032788 C35.5327467,26.1617753 35.4782392,26.1143895 35.4197914,26.0663501 C35.5849557,25.9614477 47.436399,23.1048995 47.7709963,23.0901935" id="Fill-90" fill="#6ABEB4"></path>
            <path d="M55.6605644,55.1400696 C55.6103256,55.5093522 55.5666539,55.8792884 55.5095195,56.2475907 C54.6410113,61.8659154 52.7673977,67.1603826 50.2603806,72.2453717 C49.7671861,73.2443956 49.2276931,74.2218508 48.7085583,75.2074759 C48.6671851,75.2875416 48.6185881,75.364993 48.5552149,75.4718562 C46.5157803,74.0711966 44.4871815,72.6783801 42.4257468,71.2617074 C46.8204969,65.8708346 51.2053963,60.4940141 55.5902957,55.1152329 C55.6142659,55.1234028 55.637251,55.1309192 55.6605644,55.1400696" id="Fill-91" fill="#6ABEB4"></path>
            <path d="M40.5583392,12.7184824 C42.735356,15.4233959 44.7301339,18.2064144 46.5863445,21.1489107 C44.6756264,21.6110042 42.7915053,22.0512021 40.9083694,22.4949949 C39.0288453,22.9391144 37.1506347,23.3868288 35.2024837,23.8489223 C36.997948,20.1103441 38.7697705,16.4312434 40.5583392,12.7184824" id="Fill-92" fill="#6ABEB4"></path>
            <path d="M17.224659,85.4458859 C15.5211351,75.1798288 13.8215515,64.9422031 12.1206545,54.6983683 C12.3304756,54.7604601 38.7039017,71.3036683 39.1051558,71.6180488 C38.9682303,71.7673958 17.6492265,85.2462118 17.224659,85.4458859" id="Fill-93" fill="#00594A"></path>
            <path d="M9.97607948,55.7662487 C11.6382302,65.7780564 13.3000525,75.7898641 14.9654868,85.8265084 C14.7349792,85.7902338 14.5642328,85.7444819 14.4332177,85.5745466 C10.9066475,80.9601477 7.73634617,76.1241792 5.29106043,70.8473592 C4.66192555,69.4878762 4.12341762,68.0885238 3.53696934,66.7097597 C3.47064092,66.5512623 3.47983496,66.4296932 3.57111862,66.2783853 C5.65192642,62.8342529 7.72715213,59.3865257 9.80401963,55.9397789 C9.84046742,55.8786675 9.88184059,55.8198437 9.92124361,55.7600396 C9.93963168,55.7613468 9.9576914,55.7636344 9.97607948,55.7662487" id="Fill-94" fill="#00594A"></path>
            <path d="M9.32642219,52.4819863 C7.15498745,55.8950728 4.53600007,60.3607783 2.5586252,63.7349757 C2.53892369,63.7304006 2.51626695,63.7258254 2.49492365,63.719943 C-0.0327800673,56.5450756 -1.58755755,47.8489599 2.59638642,35.890085 C2.61674465,35.8315881 2.64202825,35.7737447 2.6630432,35.7194961 C2.68405814,35.7194961 2.69358054,35.7178621 2.70244622,35.7211301 C2.71032682,35.7240713 2.7191925,35.7286464 2.72378952,35.7345288 C2.73889401,35.7675355 2.75695373,35.7995618 2.77074479,35.8342024 C4.80295553,41.0211528 7.28074875,47.2545129 9.32642219,52.4819863" id="Fill-95" fill="#00594A"></path>
            <path d="M47.505814,77.2912431 C46.4859325,78.9892896 45.4243494,80.6160939 44.2632738,82.262833 C43.7346166,79.4827557 43.2200789,76.7709794 42.690765,73.9866537 C44.3292739,75.102018 45.9040812,76.1915651 47.505814,77.2912431" id="Fill-96" fill="#00594A"></path>
            <path d="M42.4088692,84.6323857 C42.4449886,84.8117982 42.4088692,84.9461125 42.3008392,85.089904 C39.992479,88.1137731 37.5668948,91.0392759 34.9068626,93.767719 C34.8349521,93.8396147 32.9413086,95.7419104 32.3643827,96.2625009 C32.3282633,96.2892984 32.2921439,96.3252463 32.2648901,96.351717 C31.9404719,96.6572738 31.6249194,96.9533535 31.3185609,97.2491065 C30.5068587,98.021332 29.6954849,98.8020543 28.884111,99.5824498 C28.757693,99.6902934 28.6316033,99.7978102 28.4963196,99.8880067 C28.2799314,100.031145 28.0454834,100.040295 27.8290952,99.8968302 C27.7210652,99.8340849 27.6123786,99.7533656 27.5224083,99.6723195 C24.0060172,96.4595606 20.6426411,93.0948403 17.5590264,89.4781581 C17.5048473,89.4154127 16.7295929,88.5180232 16.7023391,88.4105064 C24.0060172,83.8065651 33.0316072,78.1169982 40.3172256,73.5140373 C40.3710763,73.8274373 40.4341212,74.0970463 40.4794347,74.3751521 C41.1285994,77.794121 41.7688985,81.2130899 42.4088692,84.6323857" id="Fill-97" fill="#00594A"></path>
        </g>
    </g>
</svg>